<svg width="209" height="330" viewBox="0 0 209 330" fill="none" xmlns="http://www.w3.org/2000/svg">
<path fill-rule="evenodd" clip-rule="evenodd" d="M132.327 90.5951C131.162 92.3305 130.25 93.9278 129.109 95.3316C127.802 96.9372 126.442 98.5678 124.84 99.8514C121.321 102.667 117.325 103.237 113.131 101.506C107.798 99.3057 103.949 95.5496 101.817 90.0944C101.423 89.0852 101.063 88.0664 100.567 86.7138C99.6048 87.7115 98.8537 88.4619 98.1386 89.2306C95.6768 91.8621 92.8957 94.0262 89.4811 95.2338C88.3428 95.6341 87.1394 95.9058 85.9447 96.1067C82.0441 96.754 79.6678 94.4043 78.537 91.9762C78.1321 91.1011 77.8347 90.1759 77.5163 89.3435C76.5735 88.9994 76.3572 89.7452 75.9834 90.1449C74.0559 92.1964 72.2636 94.3853 70.2147 96.2986C68.049 98.3257 65.4787 99.7654 62.5163 100.315C61.796 100.446 61.0689 100.577 60.3414 100.61C55.9906 100.806 53.5223 99.0949 51.6638 94.4263C51.2795 95.1565 50.8873 95.6838 50.7151 96.272C48.9405 102.199 48.1901 108.255 48.216 114.469C48.2671 126.415 52.1847 137.155 57.8918 147.369C59.3247 149.936 60.853 152.475 62.5581 154.867C69.0498 163.935 77.8672 169.94 88.0607 173.955C90.974 175.1 94.0843 175.901 97.1839 176.365C101.149 176.969 105.185 177.315 109.192 177.355C121.503 177.466 133.087 174.578 143.861 168.439C149.752 165.083 155.15 161.069 159.741 156.104C166.669 148.601 172.569 140.354 176.048 130.574C176.416 129.536 176.7 128.47 176.976 127.404C177.018 127.225 176.819 126.98 176.633 126.531C176.003 126.648 175.298 126.707 174.632 126.911C172.558 127.542 170.711 126.999 169.178 125.632C167.817 124.421 166.536 123.07 165.468 121.592C162.729 117.803 160.503 113.709 158.582 109.431C158.101 108.365 157.975 107.034 156.616 106.229C156.027 107.003 155.536 107.895 154.817 108.517C153.81 109.378 152.694 110.169 151.513 110.748C149.467 111.756 147.471 111.371 145.657 110.039C143.856 108.713 142.471 106.984 141.31 105.092C138.8 101.019 136.349 96.8994 133.859 92.811C133.411 92.1005 132.91 91.4429 132.327 90.5951ZM98.0605 142.718C98.0397 142.72 98.0259 142.721 98.0051 142.722C98.1134 144.195 98.1046 145.683 98.3571 147.131C98.7886 149.597 101.725 152.291 104.163 152.643C107.908 153.186 111.898 150.631 112.808 146.936C113.15 145.535 113.088 144.031 113.217 142.576C113.285 141.792 113.549 141.134 114.396 140.924C115.181 140.732 116.101 141.337 116.326 142.219C116.451 142.694 116.522 143.187 116.537 143.677C116.772 149.427 113.874 153.586 108.417 155.38C103.292 157.058 97.4575 154.277 95.5736 149.169C94.3415 145.836 94.7059 142.378 95.1563 138.955C95.2502 138.247 96.241 137.541 96.7826 137.817C97.2732 138.061 97.8742 138.578 97.9506 139.05C98.1287 140.243 98.0398 141.492 98.0605 142.718ZM129.951 133.532C129.722 130.707 131.432 128.91 134.609 128.632C137.662 128.363 140.002 130.225 140.191 133.073C140.368 135.769 138.375 138.155 135.758 138.391C132.843 138.65 130.184 136.419 129.951 133.532ZM76.2406 121.533C75.993 119.488 76.9045 117.61 78.4914 116.882C81.202 115.649 85.0438 117.322 86.0385 120.167C86.735 122.171 85.8555 124.58 84.0402 125.606C80.9645 127.357 76.6777 125.114 76.2406 121.533Z" fill="#FFF7F9"/>
<path fill-rule="evenodd" clip-rule="evenodd" d="M158.484 71.8836C155.156 72.5656 152.615 71.4631 150.335 69.6676C148.026 67.8532 145.812 65.9125 143.534 64.0606C142.588 63.2888 141.634 62.5106 140.6 61.8716C139.682 61.3012 138.692 60.9747 137.526 60.8999C135.724 60.781 133.919 60.3395 132.165 59.8382C130.134 59.2521 128.297 58.2867 127.544 56.3569C123.352 55.5944 119.401 54.8912 115.447 54.1601C112.918 53.6953 110.373 53.5894 107.806 53.5693C95.5661 53.4812 84.4757 57.2161 74.3611 63.9168C65.7315 69.6373 59.1574 77.3173 54.5419 86.6763C54.0821 87.6086 53.9458 88.4958 54.243 89.5122C54.6961 91.0433 54.9923 92.6141 55.4386 94.1458C56.1246 96.4806 57.2714 97.3287 59.6437 97.3562C61.6401 97.3764 63.594 97.0069 65.2272 95.8683C67.1182 94.5491 69.002 93.1323 70.5967 91.4703C72.8893 89.0899 74.9794 86.507 76.5117 83.5235C76.7853 82.9909 77.1726 82.4921 77.6007 82.0744C78.0608 81.6192 79.274 81.859 79.5467 82.4492C79.8026 82.9986 79.9988 83.5875 80.1052 84.183C80.4175 85.879 80.5794 87.6071 80.9801 89.2754C81.73 92.3843 83.649 93.526 86.7046 92.7309C91.6974 91.4342 95.2827 88.2001 98.1181 84.0322C98.8708 82.9239 99.4249 81.6689 100.089 80.4969C100.33 80.0791 100.59 79.6528 100.92 79.3196C101.502 78.7221 102.826 79.0449 103.046 79.8635C103.236 80.5651 103.257 81.3144 103.379 82.035C103.657 83.7335 103.839 85.4532 104.253 87.1135C105.609 92.507 108.982 96.2142 113.985 98.369C117.273 99.788 120.432 99.3641 123.242 97.0295C126.131 94.6259 128.057 91.5079 129.659 88.1543C130.026 87.3832 130.313 86.555 130.761 85.8342C131.275 84.9891 132.696 84.9258 133.316 85.7077C133.845 86.3772 134.249 87.1471 134.686 87.8865C137.65 92.838 140.561 97.8284 143.591 102.74C144.483 104.189 145.584 105.553 146.778 106.762C148.311 108.326 149.95 108.309 151.703 106.994C153.126 105.927 153.91 104.395 154.679 102.85C155.17 101.867 155.587 100.825 156.179 99.9042C156.847 98.8723 158.366 99.1034 158.826 100.255C159.048 100.821 159.17 101.436 159.331 102.028C161.135 108.792 164.594 114.71 168.496 120.412C168.839 120.913 169.268 121.366 169.69 121.811C171.979 124.196 174.911 124.378 177.512 122.312C178.379 121.623 178.501 120.638 178.54 119.653C178.704 115.459 178.681 111.272 177.925 107.132C176.383 98.6296 172.896 90.9173 167.975 83.9218C165.101 79.8128 161.778 76.0247 158.484 71.8836Z" fill="#F5C2E1"/>
<path fill-rule="evenodd" clip-rule="evenodd" d="M116.065 180.465C107.844 180.773 99.9395 180.574 92.1 178.7C90.1752 181.733 89.0377 184.982 87.6327 188.09C80.3867 204.121 74.0983 220.508 69.6798 237.557C70.8776 239.952 73.1134 240.768 75.2935 241.491C81.5921 243.585 88.032 244.763 94.7297 244.343C101.061 243.943 107.449 243.953 113.618 242.289C119.384 240.738 125.092 238.953 130.782 237.114C132.377 236.596 133.848 235.609 135.305 234.729C136.417 234.057 136.573 233.344 136.047 232.246C135.784 231.691 135.454 231.175 135.144 230.643C130.623 222.854 127.218 214.546 124.19 206.084C121.54 198.674 119.017 191.213 117.147 183.549C116.904 182.613 116.504 181.716 116.065 180.465Z" fill="#FF92CD"/>
<path fill-rule="evenodd" clip-rule="evenodd" d="M146.711 249.376C145.513 246.784 141.249 240.231 138.529 236.792C138.072 237.008 137.53 237.202 137.052 237.498C134.348 239.2 131.442 240.426 128.415 241.415C120.989 243.854 113.533 246.154 105.717 246.867C99.5305 247.432 93.3154 247.893 87.112 247.378C81.2514 246.894 75.6024 245.411 70.2931 242.781C69.7738 242.525 69.2004 242.385 68.5014 242.142C66.9782 246.479 66.6762 250.691 67.2852 255.003C67.4746 256.35 68.2057 257.313 69.389 257.808C70.7301 258.368 72.1233 258.882 73.5426 259.184C79.4049 260.447 85.3354 261.031 91.3287 260.769C95.9571 260.566 100.578 260.265 105.201 259.992C114.503 259.442 123.517 257.335 132.397 254.641C136.585 253.369 140.69 251.808 144.822 250.344C145.487 250.126 146.089 249.71 146.711 249.376Z" fill="#FFDBEE"/>
<path fill-rule="evenodd" clip-rule="evenodd" d="M133.075 45.0915C135.444 45.7436 137.885 46.4116 140.516 47.1285C146.763 42.4689 152.516 37.2355 156.312 30.1477C159.056 25.0253 159.414 19.5958 157.687 14.0614C157.325 12.9165 156.702 11.819 156.03 10.8093C155.326 9.74589 154.09 9.66222 153.207 10.6118C152.299 11.5914 151.425 12.6596 150.788 13.8226C149.789 15.6439 149 17.5899 148.131 19.4787C147.771 20.2562 147.536 21.1227 147.036 21.7913C146.732 22.1928 145.979 22.5364 145.507 22.4521C145.035 22.3678 144.499 21.7831 144.288 21.2865C144.01 20.6265 144.063 19.8367 143.913 19.1181C143.357 16.4719 142.822 13.8242 142.198 11.1972C141.856 9.75605 141.229 8.42024 139.954 7.15358C139.586 7.62997 139.113 8.00188 138.967 8.47581C138.51 10.0043 138.18 11.5655 137.799 13.1093C137.655 13.6954 137.605 14.3446 137.323 14.8567C137.115 15.2371 136.579 15.6979 136.223 15.6752C135.692 15.6444 134.913 15.3514 134.708 14.9315C134.113 13.7337 133.792 12.4033 133.29 11.1494C133.035 10.5158 132.619 9.95731 132.173 9.19046C131.016 11.227 131.01 13.2272 130.797 15.1446C130.579 17.0974 130.502 19.0818 130.563 21.042C130.818 29.0572 131.425 37.0253 133.075 45.0915Z" fill="#F5C2E1"/>
<path fill-rule="evenodd" clip-rule="evenodd" d="M192.876 187.887C192.362 186.087 191.14 185.448 190.029 184.709C189.423 184.305 188.74 184.005 188.172 183.556C187.352 182.901 187.508 181.521 188.463 181.085C189.23 180.741 190.079 180.565 190.879 180.289C191.794 179.975 192.724 179.674 193.606 179.279C194.333 178.952 194.732 178.34 194.517 177.493C194.321 176.714 193.828 176.154 193.041 176.044C192.451 175.962 191.836 176.106 191.239 176.108C190.474 176.108 189.786 175.914 189.462 175.11C189.165 174.367 189.505 173.605 190.409 172.949C190.706 172.737 191.057 172.599 191.355 172.387C193.972 170.544 194.35 169.351 193.45 165.622C191.972 165.276 190.651 166.033 189.37 166.577C187.355 167.436 185.441 168.539 183.459 169.472C182.526 169.913 181.907 170.583 181.38 171.451C180.977 172.112 180.322 172.469 179.506 172.242C178.704 172.014 178.301 171.349 178.225 170.611C178.153 169.915 178.392 169.188 178.402 168.472C178.412 167.384 178.456 166.272 178.272 165.198C178.101 164.193 177.381 163.475 176.47 163.002C175.372 162.431 174.224 162.797 173.753 163.954C173.476 164.627 173.23 165.347 173.151 166.069C172.873 168.63 172.659 171.2 172.466 173.768C172.403 174.622 172.587 175.506 172.447 176.345C171.673 181.04 172.845 185.36 174.908 189.494C177.021 193.744 180.431 195.602 185.377 195.278C186.267 193.857 185.566 192.457 185.214 191.073C185.037 190.37 184.628 189.72 184.458 189.017C184.201 187.976 185.221 187.002 186.211 187.329C186.895 187.559 187.524 187.975 188.203 188.234C189.727 188.822 191.237 188.843 192.876 187.887Z" fill="#FFF7F9"/>
<path fill-rule="evenodd" clip-rule="evenodd" d="M169.546 149.538C170.791 149.839 171.497 150.172 172.197 150.148C177.556 149.961 182.688 148.851 186.646 144.922C190.916 140.69 192.781 135.521 191.32 129.454C190.581 126.401 188.465 124.656 185.497 123.993C183.136 123.466 181.423 124.463 180.638 126.739C180.117 128.251 179.716 129.796 179.195 131.308C177.324 136.682 174.672 141.65 171.544 146.373C170.95 147.273 170.392 148.191 169.546 149.538Z" fill="#FFF7F9"/>
<path fill-rule="evenodd" clip-rule="evenodd" d="M30.9004 142.453C29.6376 142.673 29.3668 143.528 29.3465 144.385C29.3155 145.854 29.4168 147.327 29.5384 148.792C29.711 150.856 29.4917 151.749 28.5602 151.938C27.1696 152.216 26.7127 151.106 26.0829 150.199C25.4611 149.305 24.7983 148.421 24.0134 147.672C23.5053 147.191 22.6834 146.788 22.0464 147.39C21.6695 147.748 21.3693 148.486 21.4477 148.985C21.6397 150.178 22.0518 151.34 22.4353 152.49C22.6236 153.066 23.1268 153.576 23.1752 154.141C23.2206 154.663 23.0054 155.423 22.6234 155.711C22.2553 155.998 21.3906 156.055 21.0037 155.803C19.8874 155.086 18.9407 154.027 17.452 154.2C16.8936 154.263 16.3613 154.492 15.9181 154.609C15.6639 155.596 16.1866 155.992 16.6626 156.322C17.1535 156.664 17.7576 156.844 18.2805 157.149C19.7987 158.04 19.8622 159.375 18.4259 160.261C17.8076 160.643 17.1034 160.899 16.5153 161.315C16.0397 161.652 15.672 162.135 15.051 162.764C15.6468 163.211 16.0423 163.672 16.5426 163.86C19.0948 164.821 21.7555 164.989 24.4542 164.823C25.9006 164.737 27.346 164.637 28.7953 164.684C31.7565 164.78 34.3461 164.075 36.1973 161.552C38.0041 159.089 39.8699 156.67 41.6109 154.162C42.3779 153.06 42.9013 151.765 42.735 150.353C42.6819 149.914 42.3986 149.276 42.0703 149.16C41.5779 148.986 40.7278 148.958 40.4303 149.261C39.4222 150.297 38.5571 151.484 37.6985 152.663C37.0613 153.545 36.6221 154.757 35.2296 154.348C34.0858 154.012 34.0936 152.888 33.9803 151.914C33.678 149.221 33.2593 146.551 32.0701 144.085C31.7612 143.477 31.2638 142.952 30.9004 142.453Z" fill="#FFF7F9"/>
<path fill-rule="evenodd" clip-rule="evenodd" d="M45.432 123.51C45.3439 121.65 45.3168 120.431 45.228 119.224C44.7076 112.428 45.1099 105.704 46.6232 99.0591C46.7013 98.7025 46.7857 98.3384 46.8989 97.9862C47.7476 95.348 46.2888 93.4705 44.3142 92.0453C42.6845 90.8681 39.7742 90.8034 37.8735 92.5583C35.5171 94.7329 34.0603 97.325 34.0021 100.599C33.8572 108.083 36.6171 114.516 41.095 120.302C41.6863 121.065 42.4886 121.672 43.2495 122.282C43.6866 122.65 44.2512 122.861 45.432 123.51Z" fill="#FFF7F9"/>
<path fill-rule="evenodd" clip-rule="evenodd" d="M26.6026 262.303C25.8841 264.159 26.0687 265.914 26.7393 267.471C29.2174 273.287 33.0215 277.944 38.7567 280.788C38.9659 280.892 39.2286 280.873 39.5878 280.937C40.4488 279.884 40.805 278.679 40.3217 277.304C38.6134 272.505 36.2788 268.075 32.382 264.709C31.2092 263.694 29.7339 263.011 28.3273 262.315C27.8723 262.082 27.1928 262.294 26.6026 262.303Z" fill="#FF92CD"/>
<path fill-rule="evenodd" clip-rule="evenodd" d="M133.412 300.506C132.826 301.897 132.145 303.316 131.614 304.794C130.669 307.446 129.803 310.127 128.922 312.803C128.457 314.227 128.299 315.677 128.686 317.157C128.956 318.189 129.926 318.714 130.939 318.393C132.155 318.008 133.054 317.198 133.795 316.209C136.314 312.851 137.405 309.065 137.234 304.847C137.131 302.398 136.104 300.917 133.412 300.506Z" fill="#FF92CD"/>
<path fill-rule="evenodd" clip-rule="evenodd" d="M128.404 52.6727C129.897 50.955 130.132 49.3238 129.965 47.5258C129.725 44.9264 129.043 42.4579 128.23 39.9993C126.783 35.6439 124.754 31.5845 121.998 27.9438C120.905 26.4953 119.576 25.1624 118.133 24.0696C116.345 22.7218 114.74 23.1987 113.513 25.1352C112.086 27.3812 111.587 29.9443 111.498 32.526C111.327 37.5767 111.705 42.6148 112.42 47.6208C112.624 49.0651 113.157 50.1693 114.717 50.5869C119.198 51.784 123.693 52.7977 128.404 52.6727Z" fill="#FFD152"/>
<path fill-rule="evenodd" clip-rule="evenodd" d="M141.926 58.5675C145.132 61.2346 148.297 63.9117 151.513 66.5288C152.363 67.2166 153.305 67.8273 154.285 68.3089C156.096 69.206 157.545 68.7827 158.752 67.1354C159.043 66.742 159.26 66.2978 159.493 65.8666C162.218 60.7597 164.454 55.4364 166.181 49.9123C166.721 48.1742 167.327 46.3891 166.431 44.6032C165.207 43.845 163.976 44.217 162.79 44.3471C159.328 44.7162 147.684 47.9168 144.21 49.4447C143.885 50.8019 143.526 52.3442 143.139 53.8815C142.764 55.4039 142.355 56.9358 141.926 58.5675Z" fill="#FFD152"/>
<path fill-rule="evenodd" clip-rule="evenodd" d="M131.214 55.7338C133.084 56.9703 134.734 57.3811 136.437 57.5635C138.013 57.7273 138.795 57.3113 139.288 55.8785C139.723 54.6182 139.945 53.2826 140.25 52.0461C138.746 49.9333 136.724 49.2765 134.416 48.8934C132.747 50.8627 132.573 53.4157 131.214 55.7338Z" fill="#FFD152"/>
<path fill-rule="evenodd" clip-rule="evenodd" d="M147.554 134.906C154.092 134.87 159.08 140.787 158.501 147.187C158.239 150.055 156.87 152.423 154.883 154.051C153.207 155.733 150.927 156.864 148.673 157.221C143.457 158.043 138.688 152.832 137.626 148.126C136.192 141.763 140.828 134.942 147.554 134.906Z" fill="#F8CFDD"/>
<path fill-rule="evenodd" clip-rule="evenodd" d="M53.5148 128.79C53.5469 127.714 53.7595 126.73 54.1097 125.82C55.0085 120.932 59.3417 117.566 64.3422 117.791C69.9008 118.045 75.5214 121.599 75.6347 127.773C75.7647 134.457 69.3748 139.254 63.0999 138.618C58.493 138.167 53.3739 133.775 53.5148 128.79Z" fill="#F8CFDD"/>
<path fill-rule="evenodd" clip-rule="evenodd" d="M120.339 182.72C122.51 183.324 123.713 184.554 124.997 185.659C128.722 188.856 132.59 191.826 136.921 194.185C140.332 196.045 143.916 197.056 147.77 197.093C155.568 197.168 163.098 196.063 169.922 191.888C170.428 191.584 170.982 191.367 171.606 191.069C172.282 191.938 172.834 192.732 173.478 193.449C176.197 196.489 179.447 198.515 183.622 198.669C184.228 198.694 184.848 198.711 185.447 198.632C187.772 198.305 188.922 197.118 189.154 194.793C189.226 194.065 189.157 193.319 189.157 192.379C189.82 192.224 190.496 192.062 191.173 191.907C191.768 191.771 192.373 191.677 192.95 191.494C196.585 190.355 197.356 188.27 195.309 185.117C194.909 184.501 194.417 183.955 193.856 183.225C194.456 182.78 195.006 182.319 195.604 181.944C198.015 180.419 198.302 178.748 197.381 175.87C197.092 174.965 196.422 174.179 195.835 173.185C196.137 172.383 196.53 171.491 196.809 170.565C197.357 168.756 197.291 166.909 196.879 165.087C196.427 163.107 195.219 162.186 193.2 162.23C191.201 162.273 189.385 163.011 187.611 163.837C185.95 164.599 184.321 165.414 182.777 166.16C181.471 165.695 181.601 164.528 181.219 163.686C180.313 161.669 178.921 160.236 176.751 159.646C174.205 158.957 172.106 159.814 171.007 162.253C170.456 163.466 170.02 164.81 169.895 166.132C169.542 169.926 169.231 173.731 169.185 177.537C169.145 180.957 169.48 184.378 169.663 188.09C166.283 190.705 162.263 192.378 157.875 193.012C154.622 193.477 151.327 193.665 148.037 193.832C145.066 193.982 142.251 193.229 139.555 191.913C135.229 189.806 131.461 186.871 127.762 183.847C126.261 182.618 124.9 181.225 123.289 179.737C124.606 178.833 126.248 178.957 127.662 178.431C129.144 177.886 130.713 177.566 132.219 177.069C133.841 176.535 135.445 175.946 137.024 175.296C138.488 174.696 139.934 174.035 141.363 173.332C142.785 172.638 144.197 171.894 145.578 171.111C146.96 170.329 148.324 169.512 149.651 168.642C150.977 167.772 152.278 166.847 153.542 165.884C154.812 164.919 156.053 163.929 157.255 162.879C158.548 161.752 159.796 160.579 161.029 159.379C162.17 158.263 163.281 157.121 164.341 155.941C165.402 154.768 166.388 153.523 167.346 152.378C175.305 154.546 182.325 152.749 188.34 147.68C193.543 143.295 195.642 137.344 194.852 130.491C194.149 124.431 189.711 120.613 183.604 120.665C183.132 120.672 182.665 120.658 181.935 120.656C181.886 119.986 181.774 119.412 181.809 118.841C182.525 108.459 179.926 98.8493 175.241 89.6887C172.018 83.3949 167.859 77.8019 163.139 72.6014C162.481 71.8783 161.837 71.1542 161.042 70.2728C161.429 69.4021 161.76 68.5076 162.198 67.6682C164.716 62.8717 166.903 57.9313 168.617 52.7874C169.157 51.1616 169.611 49.4931 169.953 47.8118C170.148 46.8642 170.162 45.8387 170.036 44.8797C169.716 42.4265 168.427 41.1468 165.95 40.9303C164.753 40.8224 163.493 40.8808 162.315 41.1224C158.857 41.8416 155.424 42.6924 151.971 43.4813C151.513 43.5854 151.037 43.6278 150.081 43.7687C150.767 42.883 151.172 42.3407 151.591 41.8115C153.715 39.1211 156.057 36.569 157.932 33.7146C162.251 27.1428 162.996 19.9797 160.529 12.5283C160.037 11.0491 159.2 9.58852 158.215 8.38448C156.23 5.97741 153.415 5.8912 151.178 8.07772C150.141 9.09479 149.286 10.3229 148.406 11.4967C147.9 12.1657 147.496 12.9183 146.875 13.9186C146.464 13.3386 146.127 13.0197 145.995 12.6366C145.547 11.3647 145.294 10.0082 144.731 8.78684C144.126 7.45641 143.416 6.11971 142.486 5.00978C140.55 2.69036 138.492 2.87786 136.827 5.37286C136.426 5.9709 136.114 6.63957 135.635 7.49601C135.092 6.91876 134.725 6.47578 134.309 6.10667C132.369 4.40496 130.396 4.78972 129.311 7.15046C128.802 8.25474 128.362 9.45909 128.214 10.6559C127.836 13.8274 127.493 17.0103 127.409 20.2021C127.341 22.7752 127.671 25.368 127.812 27.9467C127.84 28.506 127.812 29.0695 127.808 30.3467C126.863 29.1187 126.371 28.4745 125.872 27.8379C124.667 26.2922 123.526 24.6787 122.218 23.239C121.408 22.3447 120.392 21.5779 119.347 20.9817C116.4 19.2845 113.275 19.9861 111.267 22.731C109.24 25.5124 108.519 28.7444 108.364 32.1099C108.098 37.6587 108.387 43.1875 109.409 48.662C109.477 49.0148 109.421 49.3839 109.428 49.9587C108.735 50.0732 108.048 50.2854 107.367 50.2798C94.3565 50.2191 82.6505 54.4612 71.9723 61.6164C64.5665 66.5785 58.6097 73.0962 54.0929 80.8544C52.5501 83.5017 51.3195 86.3294 49.9365 89.0701C49.5603 89.8137 49.1549 90.5384 48.6955 91.3793C47.9633 90.781 47.428 90.3085 46.8538 89.8739C43.1968 87.1276 38.879 87.3001 35.4907 90.3718C32.8452 92.771 31.2861 95.7633 30.8894 99.3431C30.589 102.06 30.7444 104.736 31.4342 107.4C32.4256 111.235 33.7811 114.917 35.811 118.317C38.8177 123.37 40.7775 125.064 46.3115 127.341C46.6295 128.356 47.0067 129.514 47.3637 130.68C50.6636 141.508 55.6432 151.454 62.7759 160.244C64.0067 161.759 65.346 163.239 66.8225 164.505C72.4309 169.303 78.4278 173.525 85.3003 176.327C85.9738 176.6 86.6184 176.952 87.2684 177.283C87.3623 177.332 87.4013 177.484 87.6137 177.819C87.3278 178.184 87.0373 178.676 86.6338 179.049C83.1142 182.32 79.3307 185.218 74.8804 187.084C68.5826 189.726 62.1837 190.333 55.6099 187.999C51.213 186.437 47.6042 183.779 44.7369 180.146C42.2301 176.971 39.9129 173.634 37.5637 170.335C36.7112 169.142 35.9158 167.875 35.9436 166.175C39.4646 163.205 42.2887 159.551 44.6023 155.478C45.7282 153.493 46.2892 151.389 45.8005 149.096C45.2788 146.636 42.9413 145.006 40.6441 145.527C40.0632 145.661 39.493 145.942 38.9802 146.247C38.3545 146.623 37.7913 147.093 37.0264 147.655C36.6953 146.935 36.4056 146.304 36.1227 145.673C35.3736 143.995 34.8231 142.183 33.8289 140.671C32.1234 138.089 29.2628 138.133 27.4777 140.7C26.7296 141.773 26.3263 143.093 25.7152 144.423C24.9288 144.221 24.1288 143.93 23.3007 143.823C20.843 143.486 19.0107 144.751 18.4281 147.222C18.1798 148.286 18.1084 149.393 17.9464 150.591C17.0159 150.793 16.0447 150.914 15.1363 151.227C12.6415 152.085 11.7566 154.038 12.75 156.484C13.0649 157.267 13.5821 157.966 14.0278 158.733C13.4493 159.561 12.7807 160.298 12.3574 161.158C11.4809 162.942 12.0501 164.913 13.7153 166.004C14.4234 166.464 15.2204 166.903 16.0249 167.068C18.1698 167.498 20.3751 168.184 22.4975 168.027C26.0994 167.76 29.4978 168.694 32.6601 168.972C35.8492 173.388 38.7617 177.635 41.8984 181.718C46.6033 187.838 52.809 191.498 60.4615 192.432C65.5185 193.047 70.4756 192.399 75.1596 190.403C77.7273 189.308 80.1185 187.798 82.5768 186.444C83.2982 186.046 83.9721 185.569 84.65 185.146C85.4048 186.052 84.7561 186.682 84.5089 187.29C82.1936 192.85 79.7992 198.374 77.4908 203.934C72.4443 216.11 68.7451 228.741 65.259 241.432C64.1523 245.472 63.5734 249.598 63.8726 253.849C64.1631 257.982 66.2688 260.429 70.0771 261.55C71.7895 262.055 73.526 262.509 75.3495 263.012C68.3223 271.889 53.9281 279.65 44.3883 279.044C44.0916 278.224 43.7472 277.323 43.4443 276.42C41.6913 271.21 39.1133 266.503 35.0879 262.718C34.0275 261.723 32.7668 260.932 31.5592 260.109C31.0614 259.767 30.4739 259.53 29.9034 259.334C26.317 258.112 23.1048 259.044 23.0129 264.026C22.9788 265.923 23.3741 267.704 24.1387 269.402C26.6172 274.93 30.3729 279.395 35.4696 282.624C36.6873 283.397 38.1234 283.831 39.4939 284.318C40.7439 284.773 41.9598 284.578 42.8032 283.477C43.4055 282.689 44.1263 282.565 45.025 282.498C52.8664 281.939 59.9994 279.312 66.5466 274.961C71.3576 271.763 75.7041 268.017 79.6068 263.623C93.0482 264.445 106.382 263.429 119.705 261.417C120.958 262.293 121.582 263.594 122.015 265.028C123.068 268.564 124.079 272.11 125.2 275.619C127.077 281.472 129.036 287.306 130.947 293.149C131.215 293.964 131.422 294.798 131.696 295.781C130.922 296.786 130.149 297.804 130.126 299.279C130.113 300.333 129.495 301.375 129.134 302.419C128.098 305.443 127.042 308.461 126.02 311.484C125.381 313.384 125.219 315.332 125.56 317.314C126.237 321.228 129.406 322.909 132.889 321.037C134.147 320.368 135.375 319.393 136.244 318.262C139.784 313.671 141.18 308.459 140.168 302.647C139.855 300.846 139.101 299.295 137.451 298.505C135.937 297.775 135.428 296.515 134.953 295.077C132.149 286.549 129.074 278.111 126.752 269.421C125.965 266.476 124.899 263.601 123.9 260.517C124.522 260.275 125.045 260.025 125.597 259.865C129.931 258.597 134.303 257.459 138.593 256.061C141.953 254.97 145.215 253.578 148.505 252.288C149.066 252.071 149.607 251.765 150.103 251.419C150.863 250.886 151.144 249.981 150.734 249.134C150.308 248.254 149.761 247.438 149.221 246.615C146.604 242.606 143.967 238.605 141.343 234.597C135.179 225.181 130.712 214.93 127.032 204.327C124.774 197.828 122.855 191.207 120.786 184.638C120.623 184.215 120.553 183.736 120.339 182.72ZM132.335 90.5865C132.919 91.4344 133.426 92.0915 133.854 92.8036C136.345 96.8922 138.796 101.005 141.306 105.085C142.475 106.977 143.853 108.706 145.654 110.033C147.469 111.372 149.464 111.75 151.51 110.742C152.691 110.157 153.808 109.372 154.815 108.512C155.534 107.897 156.024 106.998 156.613 106.225C157.972 107.029 158.098 108.36 158.58 109.426C160.507 113.697 162.728 117.798 165.467 121.588C166.536 123.066 167.824 124.416 169.178 125.628C170.711 126.995 172.558 127.539 174.632 126.908C175.298 126.705 176.002 126.645 176.633 126.528C176.819 126.978 177.025 127.222 176.976 127.401C176.7 128.467 176.424 129.54 176.048 130.571C172.57 140.351 166.671 148.597 159.744 156.099C155.154 161.063 149.756 165.076 143.866 168.432C133.092 174.569 121.508 177.455 109.197 177.343C105.19 177.303 101.153 176.956 97.1885 176.352C94.0952 175.879 90.9783 175.086 88.0648 173.94C77.8707 169.924 69.0592 163.918 62.5594 154.85C60.8475 152.465 59.3259 149.925 57.892 147.351C52.1836 137.136 48.2647 126.397 48.2121 114.451C48.1858 108.243 48.9355 102.188 50.7089 96.2542C50.8811 95.666 51.2737 95.1458 51.6573 94.4087C53.5165 99.0774 55.992 100.789 60.336 100.593C61.0634 100.56 61.7906 100.429 62.5108 100.299C65.4802 99.7489 68.0503 98.3095 70.2089 96.2832C72.2576 94.3702 74.0496 92.1816 75.9769 90.1303C76.3507 89.7307 76.5668 88.985 77.5097 89.3291C77.8282 90.1616 78.1258 91.0868 78.5308 91.9619C79.6619 94.3901 82.0385 96.7401 85.9391 96.0933C87.1338 95.8925 88.3308 95.6284 89.4755 95.2209C92.89 94.0137 95.6709 91.85 98.1325 89.2188C98.8543 88.4497 99.5985 87.6999 100.561 86.7024C101.056 88.048 101.417 89.0738 101.811 90.0831C103.943 95.5385 107.793 99.3019 113.127 101.496C117.32 103.227 121.31 102.658 124.836 99.8428C126.437 98.5594 127.798 96.9359 129.104 95.3236C130.259 93.9119 131.17 92.3218 132.335 90.5865ZM158.491 71.8792C161.784 76.0136 165.108 79.802 167.996 83.9034C172.925 90.8987 176.405 98.6049 177.949 107.114C178.699 111.254 178.73 115.448 178.566 119.635C178.527 120.62 178.398 121.605 177.538 122.294C174.937 124.36 172.011 124.176 169.716 121.792C169.294 121.354 168.865 120.901 168.521 120.393C164.626 114.69 161.159 108.772 159.354 102.008C159.193 101.417 159.078 100.801 158.848 100.235C158.388 99.0835 156.863 98.8526 156.202 99.8839C155.609 100.805 155.193 101.846 154.702 102.83C153.933 104.374 153.142 105.906 151.726 106.973C149.974 108.288 148.335 108.304 146.802 106.741C145.607 105.531 144.506 104.167 143.614 102.718C140.59 97.8057 137.671 92.8155 134.707 87.8638C134.263 87.1248 133.866 86.3544 133.337 85.6849C132.716 84.9029 131.303 84.9655 130.781 85.811C130.334 86.5318 130.054 87.3594 129.68 88.1309C128.078 91.4843 126.153 94.609 123.264 97.0051C120.454 99.3394 117.294 99.7559 114.007 98.3435C109.003 96.1881 105.623 92.4811 104.273 87.087C103.852 85.4272 103.676 83.7 103.399 82.0085C103.283 81.2873 103.256 80.5386 103.065 79.837C102.845 79.0253 101.522 78.7024 100.94 79.2928C100.61 79.6329 100.349 80.0522 100.109 80.47C99.4443 81.6419 98.8902 82.8968 98.1377 84.0051C95.2964 88.18 91.7109 91.4066 86.7251 92.7021C83.6695 93.4968 81.7503 92.3549 81 89.246C80.5991 87.5776 80.4366 85.8425 80.1245 84.1536C80.0111 83.5585 79.8218 82.9691 79.5658 82.4197C79.293 81.8295 78.0797 81.5896 77.6197 82.0447C77.1917 82.4623 76.8044 82.9611 76.5308 83.4936C74.9989 86.4769 72.9096 89.0664 70.6168 91.4395C69.0217 93.0943 67.138 94.5109 65.2476 95.8368C63.6146 96.9751 61.6607 97.3444 59.6642 97.3239C57.2919 97.2962 56.1519 96.4474 55.4587 94.1131C55.0053 92.5819 54.7089 91.0111 54.2624 89.4794C53.9651 88.463 54.1014 87.5758 54.561 86.6436C59.1685 77.2859 65.7418 69.6068 74.3778 63.887C84.4849 57.1882 95.5819 53.4542 107.822 53.5439C110.396 53.5638 112.934 53.6705 115.464 54.1356C119.41 54.8677 123.368 55.5709 127.56 56.3339C128.314 58.2638 130.152 59.2363 132.182 59.8156C133.929 60.3177 135.734 60.7594 137.543 60.878C138.71 60.953 139.7 61.2796 140.618 61.8501C141.652 62.4892 142.606 63.2675 143.552 64.0394C145.83 65.8985 148.044 67.8325 150.354 69.6472C152.621 71.4579 155.163 72.5607 158.491 71.8792ZM116.085 180.453C116.524 181.705 116.924 182.601 117.154 183.546C119.025 191.21 121.548 198.671 124.2 206.081C127.229 214.543 130.641 222.843 135.157 230.641C135.467 231.173 135.798 231.695 136.06 232.244C136.586 233.342 136.43 234.055 135.319 234.727C133.854 235.607 132.391 236.593 130.795 237.111C125.105 238.943 119.398 240.727 113.632 242.284C107.464 243.947 101.075 243.937 94.7438 244.335C88.046 244.754 81.6128 243.575 75.3069 241.481C73.1266 240.758 70.8913 239.949 69.6925 237.546C74.1091 220.499 80.3955 204.112 87.6397 188.083C89.0444 184.975 90.1814 181.727 92.1059 178.693C99.966 180.56 107.863 180.761 116.085 180.453ZM146.74 249.367C146.118 249.701 145.516 250.117 144.853 250.356C140.72 251.82 136.616 253.38 132.428 254.651C123.548 257.344 114.535 259.45 105.233 259.999C100.609 260.271 95.9882 260.571 91.3598 260.774C85.3664 261.035 79.4288 260.45 73.5732 259.186C72.1533 258.877 70.7674 258.37 69.4193 257.81C68.2291 257.316 67.5047 256.352 67.3151 255.005C66.7056 250.693 67.0066 246.474 68.5297 242.144C69.2288 242.387 69.8022 242.527 70.3215 242.783C75.6382 245.414 81.2805 246.897 87.1413 247.382C93.3444 247.891 99.56 247.438 105.747 246.874C113.563 246.162 121.019 243.863 128.444 241.425C131.471 240.429 134.377 239.21 137.081 237.508C137.559 237.206 138.101 237.012 138.558 236.803C141.284 240.221 145.541 246.775 146.74 249.367ZM133.078 45.0844C131.428 37.0181 130.82 29.0501 130.551 21.05C130.483 19.0903 130.566 17.1054 130.784 15.1527C130.997 13.2354 131.002 11.2352 132.159 9.19888C132.605 9.96577 133.022 10.5313 133.277 11.158C133.779 12.4048 134.106 13.7348 134.695 14.9401C134.9 15.36 135.679 15.6531 136.21 15.684C136.573 15.7062 137.102 15.246 137.31 14.8657C137.592 14.3536 137.642 13.7044 137.786 13.1184C138.166 11.5676 138.496 10.0066 138.954 8.48509C139.092 8.0117 139.572 7.63934 139.941 7.16301C141.222 8.42929 141.842 9.76567 142.185 11.2068C142.809 13.8339 143.345 16.4816 143.901 19.1278C144.051 19.8464 144.005 20.6357 144.276 21.2962C144.487 21.7929 145.023 22.3776 145.495 22.4619C145.967 22.5463 146.72 22.2028 147.024 21.8013C147.525 21.1398 147.759 20.2664 148.119 19.4889C148.994 17.5928 149.783 15.6539 150.775 13.8332C151.412 12.6634 152.293 11.6017 153.194 10.6228C154.076 9.66638 155.313 9.75718 156.017 10.8207C156.689 11.8304 157.319 12.9275 157.674 14.0729C159.403 19.6074 159.045 25.0367 156.301 30.1587C152.513 37.2385 146.761 42.478 140.507 47.1372C137.888 46.405 135.455 45.7363 133.078 45.0844ZM192.899 187.884C191.267 188.84 189.75 188.826 188.212 188.232C187.533 187.973 186.911 187.549 186.22 187.327C185.23 187 184.217 187.973 184.468 189.014C184.638 189.717 185.047 190.368 185.224 191.07C185.576 192.454 186.277 193.862 185.387 195.275C180.441 195.599 177.037 193.74 174.917 189.49C172.854 185.356 171.681 181.036 172.454 176.341C172.594 175.502 172.404 174.618 172.473 173.764C172.666 171.196 172.887 168.625 173.157 166.065C173.236 165.344 173.482 164.624 173.759 163.951C174.23 162.793 175.378 162.428 176.476 162.999C177.387 163.472 178.108 164.197 178.279 165.195C178.461 166.262 178.418 167.374 178.408 168.469C178.399 169.186 178.16 169.912 178.232 170.608C178.308 171.346 178.712 172.018 179.513 172.239C180.329 172.467 180.984 172.109 181.387 171.448C181.914 170.581 182.532 169.911 183.466 169.47C185.454 168.53 187.362 167.434 189.377 166.576C190.664 166.032 191.985 165.274 193.456 165.621C194.364 169.35 193.979 170.543 191.362 172.386C191.065 172.598 190.713 172.736 190.416 172.947C189.505 173.604 189.173 174.373 189.47 175.108C189.793 175.912 190.489 176.107 191.247 176.107C191.852 176.111 192.466 175.96 193.049 176.043C193.843 176.153 194.336 176.713 194.525 177.492C194.734 178.339 194.334 178.951 193.614 179.278C192.733 179.673 191.802 179.974 190.887 180.287C190.087 180.564 189.238 180.732 188.471 181.083C187.516 181.512 187.354 182.899 188.181 183.554C188.749 184.003 189.431 184.303 190.038 184.707C191.163 185.445 192.377 186.078 192.899 187.884ZM128.409 52.6644C123.699 52.7888 119.203 51.7746 114.722 50.577C113.162 50.1592 112.636 49.0545 112.425 47.6106C111.709 42.6046 111.331 37.5666 111.501 32.516C111.589 29.9344 112.081 27.3719 113.515 25.1256C114.742 23.1963 116.347 22.7126 118.135 24.0606C119.578 25.1466 120.907 26.4866 122 27.9352C124.757 31.5831 126.787 35.6358 128.234 39.9913C129.047 42.45 129.73 44.9184 129.97 47.5179C130.137 49.3158 129.902 50.947 128.409 52.6644ZM141.932 58.5601C142.361 56.9215 142.77 55.3967 143.158 53.8664C143.545 52.3291 143.897 50.7874 144.228 49.4297C147.696 47.9029 159.339 44.7038 162.809 44.3345C163.995 44.2116 165.225 43.8327 166.449 44.5911C167.345 46.3702 166.74 48.1621 166.2 49.9001C164.474 55.4309 162.238 60.7468 159.514 65.8532C159.281 66.2844 159.064 66.7286 158.773 67.122C157.56 68.7765 156.11 69.1927 154.306 68.2948C153.326 67.8132 152.384 67.2093 151.534 66.5145C148.311 63.9045 145.139 61.2275 141.932 58.5601ZM169.562 149.534C170.408 148.187 170.966 147.269 171.561 146.369C174.688 141.646 177.346 136.678 179.21 131.305C179.731 129.8 180.131 128.248 180.652 126.736C181.437 124.461 183.15 123.464 185.511 123.99C188.479 124.655 190.596 126.399 191.335 129.453C192.796 135.512 190.931 140.682 186.663 144.92C182.704 148.841 177.573 149.958 172.214 150.144C171.514 150.168 170.808 149.834 169.562 149.534ZM30.9139 142.431C31.2779 142.937 31.7822 143.461 32.0784 144.085C33.2679 146.551 33.687 149.221 33.9896 151.914C34.0967 152.896 34.0885 154.012 35.2393 154.348C36.6319 154.757 37.0709 153.545 37.708 152.663C38.5596 151.484 39.4314 150.297 40.4395 149.261C40.7365 148.952 41.5935 148.979 42.0795 149.161C42.4083 149.284 42.6986 149.922 42.7443 150.353C42.9103 151.759 42.394 153.053 41.6207 154.163C39.873 156.671 38.0144 159.089 36.2078 161.552C34.3501 164.075 31.7674 164.779 28.8061 164.683C27.3637 164.635 25.9114 164.736 24.465 164.822C21.7662 164.987 19.1055 164.819 16.5531 163.857C16.0527 163.67 15.6572 163.208 15.0613 162.761C15.6823 162.132 16.0494 161.642 16.5255 161.312C17.1205 160.896 17.8177 160.641 18.4359 160.258C19.8722 159.373 19.8017 158.038 18.2902 157.147C17.7672 156.842 17.1632 156.662 16.6722 156.319C16.1961 155.99 15.6734 155.593 15.9274 154.606C16.3701 154.482 16.9029 154.26 17.4613 154.198C18.95 154.025 19.89 155.085 21.0132 155.801C21.4002 156.053 22.2649 155.996 22.633 155.709C23.0075 155.415 23.2301 154.662 23.1847 154.139C23.1361 153.574 22.6328 153.064 22.4445 152.489C22.0609 151.338 21.6486 150.176 21.4565 148.983C21.378 148.484 21.6781 147.746 22.0549 147.388C22.6913 146.78 23.5134 147.182 24.022 147.671C24.7996 148.413 25.4631 149.304 26.0919 150.198C26.7213 151.098 27.1789 152.215 28.5695 151.937C29.5009 151.748 29.7201 150.855 29.5473 148.791C29.4255 147.326 29.324 145.853 29.3548 144.385C29.3735 143.506 29.6511 142.651 30.9139 142.431ZM45.4439 123.49C44.2636 122.848 43.6984 122.63 43.2479 122.27C42.487 121.66 41.6846 121.053 41.0932 120.29C36.6081 114.511 33.8538 108.07 33.9978 100.586C34.0624 97.3118 35.5115 94.7136 37.8682 92.5462C39.7687 90.7916 42.686 90.8562 44.3089 92.0341C46.2837 93.4595 47.7422 95.3302 46.8944 97.9751C46.7813 98.3273 46.7033 98.6839 46.6189 99.048C45.1137 105.699 44.7123 112.423 45.2262 119.212C45.3284 120.411 45.3551 121.623 45.4439 123.49ZM26.6308 262.278C27.214 262.269 27.8935 262.058 28.3555 262.29C29.7622 262.986 31.2376 263.669 32.4106 264.684C36.3079 268.051 38.643 272.481 40.3519 277.28C40.8424 278.654 40.4793 279.86 39.6185 280.913C39.2528 280.856 38.9896 280.868 38.7873 280.764C33.0517 277.919 29.247 273.261 26.7681 267.446C26.1042 265.888 25.9125 264.134 26.6308 262.278ZM133.448 300.493C136.14 300.897 137.167 302.385 137.271 304.834C137.442 309.052 136.345 312.838 133.832 316.196C133.092 317.191 132.192 317.994 130.977 318.379C129.964 318.7 128.995 318.182 128.724 317.143C128.344 315.662 128.494 314.213 128.959 312.789C129.839 310.113 130.705 307.432 131.65 304.78C132.181 303.309 132.862 301.883 133.448 300.493ZM131.221 55.726C132.579 53.408 132.753 50.8552 134.429 48.8856C136.736 49.262 138.759 49.9191 140.264 52.0389C139.959 53.2824 139.737 54.611 139.302 55.8711C138.809 57.3039 138.02 57.7203 136.451 57.5558C134.742 57.3807 133.091 56.9627 131.221 55.726Z" fill="#703F59"/>
<path fill-rule="evenodd" clip-rule="evenodd" d="M98.0588 142.718C98.0382 141.491 98.1202 140.243 97.9415 139.043C97.8721 138.571 97.2642 138.055 96.7735 137.81C96.2319 137.535 95.2411 138.24 95.1472 138.948C94.6968 142.371 94.3394 145.829 95.5645 149.162C97.4485 154.271 103.284 157.058 108.408 155.373C113.872 153.578 116.763 149.42 116.528 143.67C116.506 143.18 116.435 142.687 116.317 142.212C116.092 141.331 115.172 140.732 114.386 140.917C113.533 141.121 113.276 141.785 113.208 142.569C113.079 144.024 113.148 145.528 112.799 146.929C111.889 150.624 107.899 153.179 104.154 152.636C101.723 152.283 98.7865 149.589 98.348 147.124C98.0961 145.683 98.1043 144.188 97.9961 142.715C98.0243 142.72 98.045 142.719 98.0588 142.718Z" fill="#703F59"/>
<path fill-rule="evenodd" clip-rule="evenodd" d="M129.949 133.532C130.183 136.42 132.842 138.65 135.749 138.393C138.366 138.156 140.36 135.77 140.182 133.075C139.994 130.226 137.661 128.371 134.601 128.633C131.431 128.911 129.721 130.707 129.949 133.532Z" fill="#703F59"/>
<path fill-rule="evenodd" clip-rule="evenodd" d="M76.239 121.532C76.6691 125.114 80.956 127.357 84.0391 125.612C85.8475 124.587 86.7338 122.177 86.0373 120.173C85.0496 117.328 81.2009 115.655 78.4903 116.888C76.9093 117.602 75.9982 119.487 76.239 121.532Z" fill="#703F59"/>
</svg>
