<svg width="274" height="384" viewBox="0 0 274 384" fill="none" xmlns="http://www.w3.org/2000/svg">
<path fill-rule="evenodd" clip-rule="evenodd" d="M72.5486 282.601C70.9818 285.558 70.6103 288.213 70.7722 290.966C71.0593 295.751 72.6508 297.65 77.4174 298.677C82.4707 299.762 87.5483 300.709 92.6002 301.755C98.4822 302.967 104.356 304.23 110.22 305.463C111.503 303.575 112.505 301.797 113.822 300.274C115.353 298.475 116.961 296.625 118.882 295.267C124.263 291.474 129.775 291.702 135.176 295.534C138.078 297.59 140.035 300.325 141.38 303.509C141.843 304.599 142.102 305.756 142.516 307.115C143.482 307.257 144.475 307.566 145.444 307.519C154.061 307.096 162.677 306.673 171.279 306.112C173.5 305.969 175.719 305.48 177.897 304.973C179.715 304.548 181.58 304.053 183.04 302.415C183.414 299.573 182.079 296.923 181.617 294.3C180.264 293.006 178.845 293.623 177.524 293.693C173.284 293.892 169.295 293.201 165.694 290.815C159.97 287.025 158.432 279.478 162.36 273.831C164.836 270.267 168.065 267.94 172.739 268.328C173.555 268.396 174.395 268.275 175.217 268.244C175.122 264.134 171.744 249.871 168.849 241.208C167.652 240.937 166.326 240.621 165.01 240.324C161.963 239.628 159.041 238.63 156.482 236.818C153.207 234.508 151.368 231.482 151.322 227.37C151.264 222.417 152.28 217.859 156.043 214.345C157.502 212.975 159.34 212.016 161.282 210.687C161.001 206.346 159.946 202.004 157.952 197.728C153.819 197.389 149.938 198.257 145.873 198.44C145.02 199.738 144.204 201.014 143.338 202.254C142.063 204.082 140.634 205.757 138.616 206.882C134.667 209.077 130.559 208.876 127.023 206.131C124.689 204.32 122.793 202.137 121.862 199.284C121.552 198.336 121.173 197.401 120.845 196.494C117.007 195.125 113.319 193.82 109.481 192.451C107.662 194.943 107.25 197.836 105.608 200.341C106.794 201.097 107.647 201.609 108.463 202.182C111.847 204.537 113.98 207.799 115.104 211.634C117.275 219.048 112.236 227.525 104.664 229.64C101.849 230.428 99.193 229.974 96.5432 229.154C95.2531 228.758 94.0514 228.101 92.5754 227.454C89.7801 231.921 88.5234 236.874 86.688 241.561C84.8351 246.309 83.1317 251.12 81.2794 256.144C81.9773 256.444 82.5306 256.809 83.1231 256.916C89.5033 258.07 92.2047 262.626 93.638 268.16C94.7494 272.43 93.7065 276.277 90.1463 279.18C88.5567 280.476 86.9485 281.802 85.1608 282.789C81.8551 284.625 78.3525 285.132 74.7511 283.527C74.1429 283.263 73.5255 283.02 72.5486 282.601ZM113.271 255.959C113.003 249.313 116.261 243.85 121.936 240.848C126.765 238.282 132.285 239.271 136.146 243.082C141.371 248.245 141.281 258.682 138.277 263.058C136.36 265.84 134.129 268.07 130.521 268.384C125.035 268.867 120.333 267.195 116.516 263.244C114.404 261.059 113.441 258.395 113.271 255.959Z" fill="#6CDCF2"/>
<path fill-rule="evenodd" clip-rule="evenodd" d="M154.905 111.367C147.623 108.921 140.573 105.072 132.117 107.151C131.358 109.157 130.694 111.071 129.92 112.94C128.741 115.753 127.582 118.596 126.223 121.337C124.7 124.421 122.563 127.072 119.665 129.07C118.116 130.137 116.558 131.225 115.08 132.378C104.347 140.713 86.6743 138.995 76.4039 129.828C74.6381 128.253 73.2108 126.289 71.623 124.49C70.3464 124.716 70.736 125.69 70.7935 126.44C71.4537 134.643 73.4242 142.471 77.2222 149.854C81.9088 158.964 87.0052 167.752 94.2591 175.213C104.982 186.241 118.05 192.316 133.476 193.516C150.88 194.859 167.421 191.526 183.273 184.442C194.33 179.496 204.606 173.364 213.952 165.703C225.117 156.56 232.821 145.115 237.715 131.748C237.938 131.136 237.942 130.454 238.08 129.687C234.643 128.807 231.335 127.963 227.69 127.032C227.306 127.778 226.787 128.599 226.438 129.482C221.928 140.827 213.677 148.634 202.741 153.921C178.273 162.774 158.689 146.659 155.847 128.411C155.06 123.347 154.362 118.339 155.161 113.226C155.212 112.749 155.026 112.232 154.905 111.367ZM126.496 139.375C128.032 139.545 130.584 139.845 133.145 140.114C139.291 140.783 145.421 141.531 151.58 142.021C153.331 142.163 154.489 142.693 155.347 144.134C156.237 145.634 156.815 147.194 156.704 148.939C156.376 154.064 155.374 158.997 152.598 163.463C149.693 168.132 145.639 170.678 139.983 171.059C131.842 171.612 124.991 169.398 122.746 158.97C121.784 154.496 120.969 150.007 120.036 145.533C118.994 140.498 119.696 139.602 124.938 139.434C125.105 139.428 125.281 139.421 126.496 139.375Z" fill="#FFEFF4"/>
<path fill-rule="evenodd" clip-rule="evenodd" d="M70.2127 87.3195C65.8225 92.9439 66.1874 99.0222 67.4642 105.353C69.8462 117.101 77.4499 124.737 87.539 130.37C90.5145 132.028 93.8437 132.912 97.4206 132.817C103.653 132.651 109.292 131.045 114.084 126.968C114.607 126.523 115.098 126.02 115.684 125.681C119.968 123.265 122.223 119.284 123.995 115.014C125.885 110.463 127.487 105.823 128.334 100.946C129.212 95.8391 128.888 90.8471 127.534 85.8643C126.658 82.6238 124.892 80.0101 122.407 77.829C119.263 75.0694 115.522 73.3906 111.57 72.1251C109.962 71.612 108.512 71.9336 107.364 73.2328C106.235 74.5115 104.954 75.6871 103.986 77.0685C99.0521 84.1572 91.7903 86.7052 83.5584 87.1831C79.2613 87.4339 74.9594 87.2892 70.2127 87.3195ZM95.6859 100.365C95.5772 99.0336 96.052 97.3048 97.1092 95.6728C98.9174 92.8752 101.549 92.1531 104.678 92.6682C107.165 93.0691 108.534 94.7878 109.063 98.1799C109.218 99.1729 109.286 100.209 109.156 101.193C108.673 104.791 105.72 107.147 101.988 107.04C98.502 106.934 95.9463 104.439 95.6859 100.365Z" fill="#FFEFF4"/>
<path fill-rule="evenodd" clip-rule="evenodd" d="M187.298 86.4925C185.315 86.1815 183.729 86.7752 182.09 87.282C171.374 90.583 158.613 104.503 159.671 119.664C159.882 122.702 160.281 125.743 160.815 128.739C163.079 141.283 175.87 154.103 194.418 151.16C198.738 150.474 202.713 148.969 206.329 146.499C211.35 143.056 215.567 138.843 218.941 133.84C221.283 130.36 221.815 128.599 222.058 124.605C219.531 123.137 216.865 121.635 214.236 120.063C205.206 114.677 197.993 107.511 192.798 98.4597C191.277 95.8171 190.101 92.9735 188.811 90.2036C188.246 89.0084 187.807 87.7491 187.298 86.4925ZM175.996 118.15C175.858 114.476 179.65 110.427 183.315 110.328C187.343 110.226 191.456 114.235 191.694 118.498C191.906 122.327 188.464 125.493 183.937 125.614C179.4 125.745 176.167 122.712 175.996 118.15Z" fill="#FFEFF4"/>
<path fill-rule="evenodd" clip-rule="evenodd" d="M185.605 70.0794C183.972 69.6859 182.478 69.3367 180.983 68.9677C174.11 67.2385 168.982 63.357 165.514 57.2075C162.362 51.6099 160.919 45.5524 159.911 39.3302C159.654 37.6982 159.328 36.0885 159.055 34.5461C157.235 34.4168 157.227 35.772 156.834 36.5384C154.213 41.7402 150.908 46.4732 147.303 51.0493C141.43 58.4799 133.905 63.6882 125.173 67.32C123.454 68.0276 121.724 68.7256 119.473 69.6411C120.825 70.6484 121.676 71.368 122.61 71.9658C128.411 75.7231 131.757 80.9871 132.96 87.7162C133.742 92.0976 133.886 96.4634 133.379 100.982C137.387 101.662 141.298 102.118 145.089 103.014C148.909 103.919 152.619 105.272 156.579 106.498C162.577 93.7715 171.343 84.254 186.031 81.1892C185.887 77.6047 185.756 74.1087 185.605 70.0794Z" fill="#FFEFF4"/>
<path fill-rule="evenodd" clip-rule="evenodd" d="M14.1692 258.166C17.2871 258.385 19.3233 258.535 21.3588 258.666C22.5978 258.748 23.8011 258.921 24.3314 260.246C24.7864 261.396 24.2905 262.561 22.8125 263.695C22.0024 264.329 21.0587 264.799 20.2791 265.462C19.5089 266.114 18.7319 266.845 18.2144 267.695C17.9466 268.141 18.0857 268.976 18.331 269.501C18.4589 269.773 19.291 269.989 19.6686 269.856C20.9559 269.392 22.189 268.792 23.4222 268.192C24.5012 267.666 25.5028 266.907 26.6284 266.578C27.327 266.373 28.4413 266.529 28.9391 266.985C29.447 267.451 29.7133 268.538 29.5632 269.246C29.2884 270.552 28.5785 271.766 28.1658 273.057C27.8421 274.107 28.6526 275.056 29.8412 275.1C31.2853 275.155 32.6311 274.946 33.1191 273.306C33.5806 271.745 34.1924 270.269 36.2168 270.628C37.8953 270.92 37.9885 272.361 38.2953 273.744C38.8827 276.333 41.9832 277.66 44.2898 276.386C44.828 276.089 45.3134 275.428 45.4878 274.848C46.4011 271.728 46.8897 268.535 46.4154 265.299C45.9007 261.768 45.2205 258.273 44.647 254.744C44.4452 253.545 43.9391 252.605 43.137 251.616C41.244 249.265 39.129 247.01 38.7422 243.751C38.6309 242.875 37.7805 241.908 37.012 241.294C32.5 237.637 27.3918 235.347 21.4467 235.333C18.4644 235.327 17.4461 236.69 17.8675 239.562C18.1202 241.333 18.8817 242.808 20.296 243.902C21.3771 244.741 22.5422 245.469 23.6609 246.267C24.6788 246.99 25.5451 247.858 25.1255 249.228C24.7838 250.319 23.8382 250.74 22.7342 250.861C18.6217 251.322 16.7422 254.311 14.1692 258.166Z" fill="#FFEFF4"/>
<path fill-rule="evenodd" clip-rule="evenodd" d="M224.123 163.551C227.051 164.727 229.665 164.579 232.195 164.563C236.52 164.529 240.781 163.844 244.91 162.522C248.749 161.289 252.167 159.301 254.912 156.389C258.743 152.319 260.834 147.651 259.346 141.962C258.74 139.67 258.444 137.258 257.539 135.097C256.774 133.266 255.513 131.554 254.162 130.052C252.135 127.804 249.386 127.482 246.538 128.163C245.77 128.35 244.947 128.895 244.459 129.507C243.626 130.557 242.845 131.724 242.382 132.968C238.394 143.591 232.963 153.359 225.175 161.781C224.865 162.129 224.677 162.621 224.123 163.551Z" fill="#FFEFF4"/>
<path fill-rule="evenodd" clip-rule="evenodd" d="M203.513 289.53C205.294 288.909 205.459 287.548 205.772 286.221C206.459 283.327 207.246 282.358 208.565 282.733C210.796 283.361 210.444 285.244 210.546 286.911C210.642 288.431 210.7 289.971 210.972 291.464C211.118 292.24 211.704 292.94 212.031 293.571C214.155 293.955 215.139 292.722 215.873 291.369C216.598 290.036 216.943 288.5 217.688 287.177C218.046 286.54 218.953 285.863 219.63 285.857C220.316 285.842 221.212 286.46 221.686 287.066C222.303 287.844 222.454 288.995 223.082 289.763C224.037 290.913 225.155 291.969 226.357 292.873C226.781 293.193 227.72 293.128 228.291 292.919C229.297 292.555 229.308 291.516 229.034 290.755C228.17 288.374 227.189 286.028 226.18 283.702C225.643 282.457 224.845 281.32 224.395 280.051C223.849 278.548 225.381 276.78 226.955 277.146C228.439 277.495 229.885 278.114 231.3 278.703C233.044 279.439 234.689 280.395 236.477 281C237.52 281.357 238.732 281.222 240.227 281.334C239.385 277.964 237.615 275.766 235.207 274.066C234.431 273.522 233.308 273.396 232.32 273.196C231.321 272.986 230.263 273.016 229.282 272.756C228.192 272.471 227.506 271.696 227.639 270.514C227.771 269.332 228.631 268.736 229.714 268.576C230.729 268.429 231.78 268.479 232.81 268.46C237.22 268.353 240.224 266.045 242.355 262.444C243.259 260.907 242.457 259.404 240.629 259.057C240.461 259.024 240.293 258.981 240.116 258.978C231.312 258.834 223.025 260.481 215.559 265.44C211.874 267.883 209.207 271.059 207.202 274.873C205.773 277.587 204.364 280.3 202.945 283.014C202.102 284.608 202.057 286.291 202.512 287.965C202.661 288.543 203.18 289.038 203.513 289.53Z" fill="#FFEFF4"/>
<path fill-rule="evenodd" clip-rule="evenodd" d="M66.0261 129.299C65.5723 124.253 65.1731 119.352 64.6665 114.466C64.5445 113.304 64.1286 112.153 63.7236 111.03C61.0667 103.733 61.1459 96.4116 63.3612 89.0297C63.7022 87.9191 63.9618 86.7324 63.9483 85.5857C63.9173 82.1354 62.1034 80.3246 58.6039 80.13C55.7136 79.9619 53.1763 80.8386 51.0222 82.7789C47.0837 86.3193 45.1094 90.7056 45.3837 95.9368C45.6543 101.069 46.7422 106.023 49.4128 110.541C53.3307 117.197 58.1157 123.169 63.6448 128.578C64.0111 128.93 64.472 129.189 64.9134 129.45C65.0136 129.505 65.216 129.409 66.0261 129.299Z" fill="#FFEFF4"/>
<path fill-rule="evenodd" clip-rule="evenodd" d="M219.084 167.569C221.97 168.162 224.163 168.555 226.32 169.057C228.507 169.578 230.711 170.256 231.973 172.266C235.705 178.168 239.487 184.059 242.96 190.109C244.293 192.422 245.207 195.098 245.688 197.72C246.71 203.269 244.369 205.721 238.596 205.345C236.925 205.24 235.207 204.691 233.68 203.987C231.823 203.127 230.139 201.905 228.392 200.814C227.226 200.086 226.154 199.207 224.952 198.56C222.529 197.247 220.929 197.999 220.487 200.597C220.262 201.941 220.295 203.334 219.941 204.633C219.268 207.081 218.646 209.587 217.533 211.844C214.891 217.254 212.943 215.785 210.31 213.065C209.004 211.72 207.687 210.336 206.184 209.225C204.105 207.682 201.919 207.981 200.217 209.954C199.221 211.109 198.427 212.445 197.582 213.722C196.84 214.868 196.209 216.078 195.437 217.205C193.817 219.541 191.511 220.567 188.716 220.049C183.916 219.172 179.895 217.108 177.97 212.324C177.397 210.912 176.93 209.446 176.551 207.967C175.56 204.019 174.626 200.039 173.722 196.067C173.546 195.293 173.642 194.468 173.602 193.382C190.375 187.341 205.827 179.253 219.084 167.569Z" fill="#F3C888"/>
<path fill-rule="evenodd" clip-rule="evenodd" d="M43.0671 165.342C43.188 163.854 43.5116 162.28 44.1783 160.959C45.0917 159.154 46.1708 157.324 47.5997 155.925C51.8675 151.749 56.2878 147.716 60.7796 143.759C62.6789 142.085 64.8534 140.688 67.7527 139.788C69.0273 142.915 70.0313 145.626 71.2181 148.242C76.3903 159.578 82.5782 170.274 91.4694 179.285C94.5693 182.432 94.6834 184.168 92.4278 187.853C89.2756 193.005 84.6787 196.511 78.9101 198.33C72.9764 200.195 68.8321 198.235 66.5994 192.573C65.5381 189.903 63.8608 188.859 61.0934 189.091C60.2427 189.163 59.3694 189.156 58.5134 189.09C54.7062 188.798 53.2002 186.827 54.2362 183.317C54.6199 182.036 55.3004 180.824 55.9323 179.623C56.5642 178.423 57.3958 177.313 57.9682 176.095C58.8039 174.313 57.7763 172.542 55.838 172.388C54.6374 172.285 53.4275 172.459 52.2276 172.375C50.6936 172.275 49.112 172.216 47.6445 171.796C44.3223 170.833 42.7999 168.685 43.0671 165.342Z" fill="#F3C888"/>
<path fill-rule="evenodd" clip-rule="evenodd" d="M75.0383 72.8761C74.3442 73.4659 73.4872 73.8938 72.0221 74.8489C73.4917 68.7707 75.1734 63.6439 77.4016 58.7042C82.9097 46.5205 91.2849 36.5035 101.171 27.5372C107.755 21.5633 115.183 17.1597 123.575 14.144C130.283 11.7356 137.197 10.3973 144.221 9.61869C150.786 8.88701 157.35 9.18389 163.741 10.8916C171.053 12.8416 178.365 14.7817 185.451 17.4819C194.925 21.0911 203.382 26.1231 210.207 33.6395C211.813 35.4086 213.295 37.5187 215.318 38.6392C218.674 40.5007 220.626 43.3842 222.62 46.3354C227.201 53.1451 230.984 60.3904 234.237 67.8929C240.068 81.3607 242.899 95.4162 242.31 110.075C242.124 114.79 241.544 119.479 239.964 123.91C235.32 124.589 231.491 123.448 228.101 121.469C227.218 115.964 226.445 110.771 225.535 105.594C224.413 99.1976 221.656 93.6939 216.466 89.4883C210.295 84.4889 203.326 81.4777 195.319 80.889C194.128 80.7954 192.948 80.7014 191.846 80.6143C190.282 76.0547 190.237 74.8399 191.44 70.0278C192.207 66.943 191.704 66.0917 188.561 65.4485C186.366 64.997 184.139 64.715 181.962 64.2134C176.629 62.99 172.67 59.9644 169.954 55.28C167.532 51.0989 166.117 46.593 165.264 41.878C164.314 36.692 163.59 31.4876 163.5 26.2C163.475 25.0241 163.283 23.8248 162.918 22.7111C162.475 21.3531 160.533 20.8328 159.489 21.782C158.104 23.0406 156.838 24.3245 156.113 26.1913C154.752 29.6742 153.233 33.1236 151.463 36.4142C144.053 50.1925 133.375 60.2764 117.902 64.9037C113.895 66.0929 109.983 67.1896 105.787 65.9629C104.805 65.6735 103.745 65.6442 102.711 65.5447C92.5514 64.5722 83.0724 66.0663 75.0383 72.8761Z" fill="#F3C888"/>
<path fill-rule="evenodd" clip-rule="evenodd" d="M193.199 86.0927C193.508 85.9624 193.822 85.7132 194.117 85.7219C204.319 85.9906 212.059 90.7232 218.052 98.5578C218.557 99.2113 218.863 100.04 219.167 100.83C221.269 106.418 221.882 112.299 222.866 118.67C209.294 114.078 193.661 96.6177 193.199 86.0927Z" fill="#F3C888"/>
<path fill-rule="evenodd" clip-rule="evenodd" d="M73.5422 82.4166C77.8303 73.5424 91.8688 67.8022 102.285 71.1682C101.341 72.4301 100.435 73.6213 99.5483 74.8414C97.019 78.2892 93.6429 80.3448 89.4448 81.4027C84.3524 82.6823 79.2307 82.3904 73.5422 82.4166Z" fill="#F3C888"/>
<path fill-rule="evenodd" clip-rule="evenodd" d="M130.251 373.572C138.546 375.811 150.116 373.061 155.626 367.741C155.593 366.318 154.596 365.634 153.389 365.363C148.303 364.189 143.153 363.938 138.008 364.844C135.776 365.234 133.774 366.269 132.148 367.893C130.625 369.404 129.679 371.111 130.251 373.572Z" fill="#F9BD70"/>
<path fill-rule="evenodd" clip-rule="evenodd" d="M35.4477 338.876C36.5582 337.618 36.6234 336.478 36.0414 335.343C33.0801 329.61 29.6691 324.18 24.7963 319.794C23.3039 318.446 21.7255 317.161 19.1732 317.375C18.9276 318.413 18.4439 319.381 18.5273 320.297C18.6873 321.953 18.977 323.663 19.5843 325.212C21.8377 330.903 28.8409 336.909 35.4477 338.876Z" fill="#F9BD70"/>
<path fill-rule="evenodd" clip-rule="evenodd" d="M168.582 218.874C168.456 218.662 168.321 218.451 168.185 218.24C168.228 218.346 168.224 218.484 168.305 218.55C168.416 218.644 168.575 218.687 168.715 218.751C168.705 218.751 168.582 218.874 168.582 218.874Z" fill="#FFEFF4"/>
<path fill-rule="evenodd" clip-rule="evenodd" d="M101.969 225.757C106.578 225.722 111.855 218.877 111.145 214.859C110.587 211.745 109.406 209.02 107.088 206.833C104.973 204.836 103.009 205.058 101.71 207.56C99.5235 211.786 97.4273 216.058 95.4108 220.367C94.5113 222.279 95.0626 223.643 97.0848 224.467C98.6279 225.072 100.335 225.334 101.969 225.757Z" fill="#FFE7A4"/>
<path fill-rule="evenodd" clip-rule="evenodd" d="M74.1913 277.448C76.4393 280.112 79.0215 280.698 82.0599 279.317C82.9859 278.897 83.8987 278.388 84.7509 277.831C90.6019 274.021 91.0612 267.684 85.8708 262.935C83.2194 260.503 79.7208 261.119 78.4134 264.452C76.7376 268.688 75.2607 272.997 74.1913 277.448Z" fill="#FFE7A4"/>
<path fill-rule="evenodd" clip-rule="evenodd" d="M180.281 288.189C179.482 284.412 178.778 280.789 177.927 277.192C177.077 273.624 172.885 271.695 169.44 273.219C166.487 274.527 165.218 277.037 164.809 280.019C164.408 282.932 165.389 285.279 167.972 286.942C171.802 289.418 175.791 289.832 180.281 288.189Z" fill="#FFE7A4"/>
<path fill-rule="evenodd" clip-rule="evenodd" d="M116.156 306.278C123.388 307.648 130.306 307.971 137.325 307.588C136.514 301.903 132.56 297.71 127.554 297.107C126.431 296.971 125.165 297.207 124.07 297.584C120.206 298.917 118.445 300.862 116.156 306.278Z" fill="#FFE7A4"/>
<path fill-rule="evenodd" clip-rule="evenodd" d="M162.526 215.615C161.103 216.37 160.124 216.684 159.43 217.294C157.731 218.792 156.703 220.699 156.238 222.952C154.768 230.049 157.747 234.437 164.984 235.677C166.258 235.896 167.328 234.867 167.022 233.514C166.129 229.562 165.148 225.633 164.166 221.694C163.727 219.921 163.22 218.15 162.526 215.615Z" fill="#FFE7A4"/>
<path fill-rule="evenodd" clip-rule="evenodd" d="M126.327 197.722C127.765 201.288 129.653 203.511 133.075 203.738C134.314 203.82 135.744 203.232 136.878 202.596C138.165 201.875 139.282 200.785 139.422 198.762C135.089 198.579 130.977 198.002 126.327 197.722Z" fill="#FFE7A4"/>
<path fill-rule="evenodd" clip-rule="evenodd" d="M136.106 254.052C135.608 252.27 135.341 250.391 134.583 248.739C132.373 243.946 126.87 242.65 122.532 245.731C120.353 247.277 118.849 249.282 118.2 251.848C116.423 258.906 122.967 265.484 130.304 263.893C131.53 263.629 132.76 262.673 133.627 261.73C135.588 259.599 135.997 256.914 136.106 254.052Z" fill="#FFE7A4"/>
<path fill-rule="evenodd" clip-rule="evenodd" d="M151.627 148.508C148.616 146.97 145.822 146.472 142.869 146.217C138.077 145.804 133.328 144.994 128.548 144.392C127.562 144.261 126.563 144.309 125.218 144.27C125.228 145.328 125.121 146.143 125.277 146.909C126.145 151.228 126.974 155.548 128.007 159.831C128.958 163.731 131.596 165.817 135.692 166.207C144.08 167.019 147.298 164.168 149.915 158.077C151.198 155.131 152.002 151.995 151.627 148.508Z" fill="#F2F3F5"/>
<path fill-rule="evenodd" clip-rule="evenodd" d="M69.7847 121.761C69.4852 113.762 74.8287 106.351 83.1443 106.276C91.038 106.196 97.5145 113.33 99.2499 120.642C100.531 126.053 99.1082 131.793 95.5464 135.438C91.2487 141.435 82.7055 141.46 77.2415 136.74C72.5973 133.484 70.0033 127.341 69.7847 121.761Z" fill="#FEDAC6"/>
<path fill-rule="evenodd" clip-rule="evenodd" d="M185.259 138.43C189.451 129.856 199.016 128.3 206.995 132.351C214.455 136.135 217.998 144.576 216.74 152.644C215.616 159.806 209.17 163.718 202.664 164.695C197.835 165.421 192.094 163.263 188.886 159.586C188.323 158.945 187.826 158.261 187.398 157.556C183.41 152.177 182.371 144.334 185.259 138.43Z" fill="#FEDAC6"/>
<path fill-rule="evenodd" clip-rule="evenodd" d="M168.583 218.877C169.332 219.749 170.225 220.526 170.8 221.484C174.745 228.08 179.159 234.352 184.05 240.29C188.819 246.093 193.607 251.886 198.519 257.586C201.063 260.536 203.882 263.278 206.833 266.372C205.721 268.372 204.562 270.413 203.443 272.492C201.828 275.49 200.134 278.452 198.71 281.541C197.194 284.813 197.437 288.166 199.019 291.38C200.611 294.603 201.717 295.046 205.632 294.286C205.943 294.225 206.289 294.291 206.751 294.303C207.318 295.033 207.87 295.893 208.574 296.618C210.807 298.897 213.341 299.247 216.023 297.514C217.431 296.611 218.641 295.388 220.068 294.197C221.255 294.993 222.29 295.914 223.508 296.461C224.885 297.092 226.399 297.697 227.884 297.8C231.512 298.029 233.695 295.811 233.63 292.223C233.605 291.038 233.482 289.845 233.252 288.687C233.043 287.558 232.639 286.455 232.254 285.085C233.918 284.459 235.091 285.404 236.307 285.665C238.374 286.111 240.374 286.352 242.403 285.514C244.016 284.84 244.816 283.673 244.85 281.971C244.901 279.664 244.022 277.65 242.803 275.768C241.897 274.358 240.867 273.032 239.79 271.51C240.827 270.65 241.832 269.989 242.613 269.119C243.979 267.604 245.443 266.095 246.417 264.338C248.844 259.984 246.66 255.616 241.674 254.765C239.66 254.416 237.542 254.436 235.487 254.592C226.939 255.27 218.826 257.336 211.856 262.444C209.375 262.201 207.628 260.873 206.114 259.219C204.028 256.953 201.885 254.73 199.952 252.35C193.484 244.405 186.883 236.553 180.788 228.337C177.141 223.431 174.153 218.025 171.205 212.657C168.363 207.473 165.943 202.065 163.172 196.423C164.851 195.955 166.453 195.509 167.958 195.086C169.371 196.675 169.689 198.354 170.083 199.981C170.874 203.284 171.616 206.599 172.426 209.901C173.212 213.066 174.366 216.108 176.586 218.566C180.086 222.43 184.697 224.274 189.842 224.673C192.901 224.904 195.611 223.665 197.695 221.421C198.845 220.171 199.762 218.712 200.719 217.302C201.575 216.043 202.35 214.728 203.349 213.138C204.347 213.842 205.18 214.335 205.89 214.961C207.046 215.976 208.052 217.164 209.245 218.128C212.646 220.907 216.353 220.629 219.281 217.364C221.249 215.164 222.495 212.546 223.372 209.764C223.881 208.152 224.27 206.506 224.823 204.497C225.669 204.821 226.432 205.02 227.112 205.38C228.924 206.35 230.654 207.492 232.493 208.402C236.231 210.239 240.129 210.339 244.064 209.074C248.358 207.686 250.573 204.754 250.584 200.323C250.598 195.981 249.239 191.928 247.108 188.201C244.914 184.357 242.432 180.673 240.084 176.914C238.655 174.634 237.023 172.45 236.076 169.677C238.527 168.596 240.934 168.446 243.23 167.924C248.376 166.762 253.014 164.619 256.923 161.09C262.626 155.94 265.581 149.717 264.241 141.964C263.804 139.459 263.366 136.924 262.54 134.522C259.765 126.428 255.091 123.143 246.106 122.907C246.042 121.99 245.77 121.001 245.942 120.085C249.378 101.027 245.787 82.9253 238.351 65.3642C235.23 57.9852 231.368 50.9804 227.015 44.2313C223.849 39.3167 219.998 34.9815 215.559 31.173C208.515 25.1383 201.183 19.5201 192.705 15.5075C191.007 14.7011 189.263 13.9855 187.511 13.2998C186.237 12.7939 184.844 12.5398 183.615 11.9432C177.69 9.06082 171.231 7.8996 164.931 6.26757C155.778 3.88253 146.506 4.08316 137.218 5.71838C130.913 6.83587 124.773 8.41198 118.829 10.7916C112.054 13.5092 105.901 17.1131 100.36 21.8709C88.8982 31.7074 79.2815 42.8887 73.0191 56.6733C70.4 62.4387 68.7138 68.4953 66.9682 74.5344C66.6993 75.4741 66.3414 76.3974 65.9171 77.6397C64.8791 77.1645 64.1586 76.7862 63.4118 76.4879C57.5245 74.0888 52.2401 75.2173 47.6378 79.3662C42.6468 83.8758 40.2862 89.4732 40.5971 96.2062C40.9028 102.801 42.662 108.916 46.1972 114.519C50.2965 121.04 55.0916 127.021 60.678 132.388C61.7668 133.435 62.8556 134.482 64.2188 135.786C63.3511 136.451 62.7434 136.989 62.0631 137.42C55.2245 141.841 49.3376 147.314 43.9104 153.274C41.2153 156.223 39.4199 159.624 38.5675 163.582C37.5155 168.497 39.9761 174.22 46.4627 176.122C47.2858 176.358 48.153 176.463 48.9934 176.64C49.8044 176.817 50.6162 177.014 51.6754 177.27C51.0315 178.936 50.4153 180.295 49.9678 181.706C47.9046 188.172 51.1311 192.867 57.9793 193.42C59.1795 193.514 60.3787 193.577 61.7553 193.664C62.3595 194.868 62.9253 196.092 63.5965 197.254C65.4019 200.41 68.1897 202.293 71.7732 202.9C75.5934 203.537 79.3095 203.229 82.9067 201.581C89.3874 198.607 94.4827 194.262 97.536 187.778C97.8175 187.174 98.1691 186.607 98.5539 185.88C99.2627 186.21 99.9184 186.432 100.472 186.797C101.589 187.546 102.659 188.376 103.991 189.355C103.317 190.478 102.827 191.535 102.115 192.432C93.7618 203.041 85.48 213.717 76.9451 224.185C70.8579 231.644 63.9458 238.293 55.2177 242.815C52.9372 243.998 50.5629 245.037 48.1759 245.997C46.0885 246.837 45.1096 246.37 44.043 244.343C43.8846 244.042 43.7646 243.72 43.6451 243.408C42.1306 239.114 38.9679 236.385 34.9429 234.469C31.2072 232.681 27.41 231.084 23.1736 230.857C22.6526 230.828 22.1475 230.698 21.637 230.688C15.5043 230.642 11.9966 234.947 13.4614 240.796C13.7848 242.099 14.3521 243.364 14.9853 244.556C15.5237 245.574 16.3221 246.464 17.3365 247.88C16.1033 249.004 14.7398 250.054 13.6193 251.303C12.4896 252.572 11.4028 253.938 10.6347 255.431C9.37417 257.921 10.0309 260.002 12.3581 261.636C13.1741 262.208 14.1397 262.587 15.3396 263.195C14.836 264.153 14.3275 264.983 13.9482 265.858C11.7795 270.815 14.1708 274.424 19.5626 274.33C20.5919 274.311 21.6062 274.154 22.5443 274.059C22.8983 274.343 23.2474 274.498 23.3851 274.77C25.4498 278.826 27.2611 280.043 31.4478 279.203C33.989 278.692 36.0553 278.862 38.31 280.132C39.5825 280.845 41.2861 281.019 42.8176 281.05C46.6072 281.135 49.1289 279.319 50.0037 275.696C51.0395 271.395 51.6718 267.059 50.651 262.588C49.7834 258.803 49.3246 254.934 48.6644 250.923C50.3894 250.097 51.9007 249.328 53.4448 248.647C61.0964 245.244 67.6831 240.387 73.565 234.519C79.0404 229.061 83.7064 222.942 88.5037 216.926C90.6116 214.276 92.709 211.606 94.8633 208.884C95.8481 210.034 95.0123 210.767 94.6732 211.403C87.2116 225.648 82.2291 240.868 76.5796 255.826C73.2239 264.715 70.2957 273.756 67.4064 282.785C66.2377 286.419 65.9638 290.108 66.6634 293.859C67.4767 298.289 70.0477 301.199 74.4227 302.508C76.2183 303.043 78.0672 303.429 80.325 303.997C79.4657 305.413 78.8726 306.603 78.0683 307.652C74.8414 311.858 71.5844 316.045 68.2665 320.175C63.0646 326.651 56.9404 332.073 49.2638 335.596C46.9397 336.663 44.6489 337.837 41.8632 337.843C39.51 330.534 35.1531 324.467 30.3281 318.735C28.819 316.942 26.6912 315.658 24.7923 314.196C24.2572 313.791 23.5887 313.49 22.9345 313.307C18.1085 312.005 14.5158 312.991 13.999 319.102C13.7327 322.208 14.4136 325.198 15.9096 327.951C19.5337 334.618 24.9336 339.459 31.8692 342.61C34.0943 343.614 36.3469 343.519 38.8752 343.187C50.4323 341.654 59.5157 335.883 67.347 327.844C70.0864 325.032 72.5609 321.952 75.0466 318.911C77.4192 315.993 79.6807 312.991 81.9223 309.979C83.1268 308.351 84.1909 306.64 85.3612 304.885C95.2728 306.826 105.223 308.746 115.165 310.725C124.999 312.679 135.046 311.688 145.159 312.455C147.073 328.473 147.749 344.429 153.013 359.531C150.851 360.749 149.137 360.033 147.467 359.947C143.839 359.747 140.245 359.645 136.669 360.551C133.394 361.377 130.588 362.916 128.306 365.376C126.222 367.62 125.33 370.264 125.602 373.33C125.823 375.824 127.11 377.466 129.463 378.199C130.763 378.605 132.148 378.918 133.513 378.966C142.228 379.34 150.214 376.992 157.567 372.433C159.974 370.948 161.822 368.97 162.421 366.099C162.754 364.524 162.443 363.27 160.874 362.775C158.74 362.094 157.95 360.66 157.39 358.802C155.102 351.135 153.174 343.395 152.249 335.448C151.366 327.857 150.64 320.259 149.818 312.428C151.056 312.223 152.213 311.952 153.377 311.859C159.91 311.326 166.455 310.872 172.977 310.31C176.781 309.989 180.499 309.196 183.916 307.455C187.603 305.576 188.428 304.052 187.533 300.04C184.37 285.79 181.207 271.519 177.821 257.317C175.144 246.084 172.127 234.923 169.334 223.724C168.93 222.108 168.905 220.398 168.705 218.724C168.566 218.66 168.407 218.607 168.295 218.522C168.215 218.456 168.219 218.317 168.176 218.21C168.322 218.452 168.458 218.664 168.583 218.877ZM191.835 80.5946C190.272 76.0349 190.226 74.8202 191.429 70.0081C192.197 66.9233 191.694 66.0719 188.55 65.4287C186.356 64.9773 184.128 64.6952 181.951 64.1937C176.618 62.9703 172.66 59.9447 169.944 55.2603C167.521 51.0791 166.107 46.5733 165.253 41.8583C164.304 36.6723 163.579 31.4679 163.489 26.1803C163.465 25.0044 163.273 23.8051 162.907 22.6914C162.464 21.3334 160.522 20.8131 159.478 21.7623C158.093 23.0209 156.827 24.3048 156.102 26.1715C154.742 29.6545 153.223 33.1038 151.453 36.3945C144.042 50.1728 133.364 60.2567 117.891 64.884C113.884 66.0732 109.972 67.1698 105.777 65.9432C104.795 65.6538 103.734 65.6245 102.701 65.5249C92.5604 64.5517 83.0818 66.0557 75.0374 72.856C74.3434 73.4458 73.4864 73.8737 72.0213 74.8288C73.4908 68.7506 75.1725 63.6238 77.4008 58.6841C82.9089 46.5004 91.2841 36.4834 101.17 27.5172C107.754 21.5432 115.182 17.1397 123.574 14.1239C130.282 11.7155 137.197 10.3772 144.22 9.59861C150.785 8.86694 157.349 9.16382 163.74 10.8715C171.053 12.8215 178.365 14.7616 185.45 17.4618C194.924 21.071 203.382 26.1029 210.206 33.6194C211.812 35.3885 213.294 37.4986 215.318 38.6191C218.674 40.4806 220.626 43.3642 222.62 46.3154C227.2 53.1251 230.983 60.3703 234.237 67.8728C240.067 81.3406 242.899 95.3961 242.31 110.055C242.123 114.77 241.543 119.459 239.963 123.89C235.319 124.569 231.49 123.428 228.1 121.449C227.217 115.944 226.444 110.751 225.534 105.573C224.412 99.1775 221.655 93.6738 216.466 89.4682C210.295 84.4688 203.325 81.4576 195.318 80.8689C194.128 80.7852 192.937 80.6817 191.835 80.5946ZM72.5495 282.601C73.5359 283.009 74.1438 283.263 74.7521 283.527C78.3534 285.132 81.8658 284.624 85.1618 282.789C86.9494 281.802 88.5576 280.476 90.1473 279.179C93.707 276.266 94.7504 272.43 93.639 268.16C92.2057 262.626 89.5043 258.069 83.1241 256.915C82.5217 256.809 81.9783 256.444 81.2804 256.144C83.1327 251.119 84.8364 246.318 86.6889 241.561C88.524 236.863 89.7807 231.911 92.5764 227.454C94.0622 228.1 95.2639 228.757 96.5442 229.154C99.194 229.974 101.85 230.428 104.665 229.64C112.237 227.525 117.286 219.047 115.105 211.633C113.981 207.799 111.848 204.536 108.463 202.181C107.648 201.609 106.785 201.097 105.609 200.34C107.251 197.836 107.662 194.933 109.482 192.451C113.31 193.82 117.008 195.125 120.846 196.493C121.174 197.401 121.553 198.336 121.863 199.284C122.804 202.146 124.69 204.32 127.024 206.131C130.56 208.876 134.668 209.087 138.617 206.881C140.635 205.757 142.064 204.081 143.339 202.253C144.205 201.014 145.021 199.737 145.874 198.439C149.939 198.257 153.82 197.389 157.953 197.728C159.947 202.004 161.002 206.345 161.283 210.686C159.341 212.025 157.494 212.975 156.044 214.345C152.281 217.859 151.275 222.416 151.323 227.369C151.369 231.482 153.208 234.508 156.483 236.817C159.052 238.629 161.974 239.627 165.011 240.324C166.337 240.62 167.653 240.926 168.85 241.208C171.745 249.871 175.123 264.123 175.218 268.244C174.396 268.275 173.556 268.386 172.74 268.327C168.056 267.95 164.837 270.266 162.361 273.831C158.433 279.477 159.971 287.025 165.695 290.815C169.296 293.201 173.285 293.891 177.525 293.692C178.847 293.633 180.266 293.015 181.618 294.3C182.08 296.923 183.415 299.572 183.041 302.415C181.581 304.052 179.716 304.548 177.898 304.972C175.72 305.479 173.501 305.968 171.28 306.111C162.678 306.663 154.062 307.096 145.445 307.519C144.476 307.565 143.483 307.247 142.517 307.115C142.093 305.756 141.834 304.599 141.381 303.508C140.036 300.325 138.079 297.59 135.177 295.533C129.776 291.711 124.254 291.474 118.883 295.266C116.962 296.624 115.354 298.475 113.823 300.273C112.516 301.796 111.513 303.574 110.221 305.462C104.357 304.229 98.4832 302.967 92.6011 301.754C87.5493 300.708 82.4619 299.762 77.4184 298.676C72.6517 297.649 71.0602 295.751 70.7732 290.965C70.6015 288.213 70.9733 285.568 72.5495 282.601ZM154.906 111.367C155.027 112.233 155.223 112.749 155.142 113.217C154.343 118.33 155.041 123.338 155.829 128.402C158.67 146.65 178.254 162.765 202.722 153.912C213.657 148.615 221.909 140.808 226.419 129.473C226.769 128.59 227.287 127.769 227.671 127.023C231.316 127.954 234.624 128.798 238.061 129.678C237.933 130.444 237.919 131.127 237.697 131.739C232.802 145.106 225.088 156.552 213.934 165.694C204.588 173.364 194.311 179.497 183.254 184.433C167.402 191.517 150.87 194.849 133.457 193.507C118.031 192.307 104.973 186.232 94.2402 175.204C86.9961 167.742 81.8899 158.955 77.2033 149.845C73.3955 142.462 71.4344 134.624 70.7746 126.431C70.7073 125.682 70.3275 124.707 71.6041 124.481C73.2021 126.29 74.6191 128.244 76.385 129.819C86.6554 138.986 104.328 140.704 115.061 132.369C116.549 131.215 118.097 130.128 119.646 129.061C122.544 127.063 124.681 124.412 126.204 121.328C127.563 118.587 128.722 115.754 129.902 112.931C130.675 111.062 131.339 109.148 132.098 107.142C140.574 105.072 147.624 108.921 154.906 111.367ZM70.213 87.3183C74.9593 87.2781 79.2617 87.4326 83.5485 87.1723C91.7801 86.6845 99.0423 84.1465 103.976 77.0578C104.944 75.6665 106.225 74.5007 107.354 73.222C108.502 71.9129 109.952 71.6012 111.56 72.1143C115.512 73.3798 119.263 75.0583 122.397 77.8182C124.892 79.9989 126.648 82.6228 127.524 85.8535C128.878 90.8363 129.213 95.8379 128.324 100.935C127.477 105.813 125.865 110.452 123.986 115.003C122.213 119.283 119.959 123.254 115.674 125.67C115.088 125.999 114.587 126.512 114.074 126.957C109.292 131.033 103.643 132.64 97.4108 132.806C93.8342 132.911 90.5149 132.027 87.5293 130.359C77.4304 124.726 69.8266 117.091 67.4544 105.342C66.1783 99.0312 65.8229 92.9426 70.213 87.3183ZM187.298 86.4914C187.806 87.7481 188.246 89.0073 188.811 90.2124C190.102 92.9824 191.277 95.8259 192.799 98.4685C197.993 107.52 205.216 114.685 214.237 120.072C216.866 121.644 219.531 123.146 222.058 124.613C221.825 128.608 221.292 130.358 218.941 133.849C215.568 138.852 211.351 143.075 206.329 146.508C202.714 148.978 198.738 150.482 194.418 151.169C175.87 154.102 163.089 141.282 160.815 128.748C160.271 125.752 159.873 122.701 159.671 119.673C158.613 104.512 171.364 90.5922 182.09 87.2908C183.728 86.7742 185.315 86.1804 187.298 86.4914ZM185.605 70.079C185.756 74.1083 185.886 77.5945 186.021 81.1892C171.333 84.254 162.576 93.7711 156.568 106.498C152.609 105.282 148.899 103.928 145.078 103.014C141.288 102.108 137.386 101.662 133.368 100.982C133.876 96.4634 133.732 92.0877 132.95 87.7162C131.747 80.9969 128.401 75.733 122.6 71.9658C121.665 71.3581 120.814 70.6385 119.462 69.6411C121.723 68.7253 123.443 68.0276 125.163 67.32C133.895 63.6882 141.42 58.4799 147.293 51.0493C150.908 46.4827 154.213 41.7398 156.824 36.5385C157.217 35.7622 157.225 34.407 159.045 34.5462C159.318 36.0787 159.643 37.6982 159.901 39.3302C160.908 45.5525 162.352 51.6099 165.504 57.2075C168.971 63.357 174.1 67.2385 180.972 68.9677C182.477 69.3363 183.972 69.6855 185.605 70.079ZM219.085 167.567C221.972 168.161 224.164 168.553 226.321 169.055C228.509 169.576 230.712 170.255 231.974 172.264C235.707 178.167 239.488 184.057 242.962 190.107C244.294 192.421 245.208 195.096 245.689 197.719C246.711 203.268 244.37 205.72 238.598 205.343C236.926 205.238 235.209 204.69 233.681 203.986C231.825 203.126 230.141 201.904 228.393 200.812C227.228 200.085 226.155 199.205 224.954 198.558C222.531 197.245 220.93 197.998 220.488 200.596C220.264 201.939 220.296 203.332 219.943 204.631C219.269 207.08 218.647 209.585 217.535 211.843C214.892 217.253 212.944 215.783 210.312 213.064C209.006 211.719 207.688 210.334 206.185 209.224C204.107 207.68 201.92 207.98 200.219 209.953C199.222 211.108 198.429 212.443 197.584 213.721C196.842 214.866 196.21 216.077 195.438 217.204C193.819 219.539 191.513 220.566 188.717 220.048C183.917 219.17 179.896 217.106 177.971 212.323C177.398 210.91 176.931 209.445 176.552 207.965C175.561 204.017 174.627 200.037 173.723 196.066C173.547 195.291 173.644 194.467 173.603 193.38C190.377 187.339 205.828 179.252 219.085 167.567ZM67.7627 139.786C69.0373 142.913 70.0412 145.624 71.228 148.24C76.4002 159.577 82.5882 170.272 91.4795 179.283C94.5794 182.43 94.6934 184.166 92.4378 187.851C89.2856 193.004 84.6887 196.509 78.9201 198.329C72.9865 200.194 68.8421 198.233 66.6094 192.571C65.5481 189.902 63.8707 188.857 61.1034 189.09C60.2526 189.161 59.3794 189.155 58.5234 189.088C54.7162 188.796 53.2102 186.825 54.2462 183.315C54.6299 182.035 55.3104 180.822 55.9423 179.622C56.5742 178.421 57.4058 177.312 57.9782 176.094C58.814 174.312 57.7863 172.541 55.848 172.386C54.6474 172.283 53.4375 172.457 52.2376 172.374C50.7036 172.273 49.122 172.214 47.6545 171.794C44.3326 170.842 42.8102 168.693 43.0775 165.351C43.1984 163.863 43.522 162.288 44.1886 160.967C45.102 159.163 46.1812 157.332 47.6101 155.933C51.8779 151.757 56.2982 147.724 60.79 143.767C62.6885 142.074 64.8634 140.687 67.7627 139.786ZM14.1704 258.165C16.7434 254.31 18.6131 251.323 22.7362 250.881C23.8499 250.76 24.7857 250.339 25.1274 249.248C25.5474 247.887 24.6811 247.02 23.6629 246.287C22.5441 245.488 21.3794 244.77 20.2979 243.921C18.8837 242.827 18.1221 241.353 17.8695 239.582C17.448 236.71 18.4659 235.337 21.4486 235.353C27.3937 235.366 32.5117 237.656 37.0139 241.314C37.7824 241.928 38.6328 242.895 38.7441 243.771C39.1309 247.03 41.2459 249.284 43.1389 251.636C43.9309 252.615 44.4467 253.555 44.6489 254.763C45.2221 258.282 45.9026 261.787 46.4174 265.318C46.8916 268.554 46.403 271.747 45.4897 274.867C45.3153 275.447 44.8299 276.108 44.2917 276.406C41.9851 277.679 38.8846 276.352 38.2972 273.763C37.981 272.391 37.8973 270.94 36.2187 270.647C34.1845 270.289 33.5825 271.765 33.121 273.325C32.6331 274.965 31.2973 275.184 29.8431 275.12C28.6545 275.076 27.8441 274.127 28.1677 273.076C28.5804 271.785 29.2903 270.572 29.5651 269.266C29.7152 268.558 29.4489 267.47 28.941 267.005C28.4433 266.549 27.3289 266.393 26.6303 266.597C25.4949 266.927 24.5031 267.686 23.4241 268.211C22.2007 268.811 20.9578 269.412 19.6705 269.875C19.2929 270.008 18.4612 269.802 18.3329 269.52C18.0876 268.996 17.9481 268.15 18.2163 267.715C18.7338 266.865 19.5108 266.133 20.281 265.481C21.0606 264.819 22.0039 264.338 22.8144 263.715C24.2921 262.571 24.7978 261.405 24.3333 260.265C23.8027 258.93 22.5998 258.768 21.3607 258.686C19.3339 258.525 17.298 258.384 14.1704 258.165ZM224.124 163.55C224.678 162.62 224.865 162.128 225.195 161.769C232.983 153.357 238.414 143.579 242.402 132.956C242.865 131.712 243.646 130.555 244.479 129.496C244.966 128.874 245.789 128.329 246.558 128.151C249.397 127.471 252.155 127.792 254.182 130.04C255.532 131.532 256.794 133.255 257.559 135.085C258.464 137.257 258.76 139.659 259.366 141.95C260.854 147.64 258.772 152.307 254.932 156.378C252.187 159.29 248.769 161.288 244.93 162.51C240.801 163.833 236.54 164.517 232.215 164.551C229.666 164.578 227.061 164.716 224.124 163.55ZM203.511 289.53C203.179 289.028 202.66 288.533 202.501 287.946C202.046 286.272 202.09 284.589 202.933 282.995C204.352 280.281 205.761 277.567 207.19 274.853C209.195 271.04 211.863 267.863 215.548 265.42C223.024 260.471 231.3 258.815 240.104 258.958C240.271 258.962 240.44 259.005 240.617 259.038C242.446 259.394 243.257 260.886 242.343 262.424C240.222 266.025 237.208 268.334 232.798 268.44C231.769 268.469 230.717 268.41 229.703 268.557C228.63 268.716 227.759 269.312 227.627 270.494C227.495 271.686 228.181 272.451 229.271 272.737C230.251 272.996 231.31 272.966 232.308 273.176C233.297 273.376 234.41 273.502 235.195 274.047C237.603 275.736 239.373 277.944 240.215 281.314C238.72 281.203 237.509 281.337 236.465 280.981C234.687 280.375 233.032 279.409 231.288 278.683C229.873 278.094 228.438 277.475 226.943 277.126C225.38 276.76 223.847 278.528 224.384 280.031C224.843 281.3 225.631 282.437 226.168 283.683C227.168 286.009 228.158 288.355 229.022 290.735C229.296 291.506 229.286 292.535 228.279 292.899C227.698 293.109 226.769 293.174 226.345 292.854C225.144 291.949 224.026 290.904 223.07 289.743C222.443 288.975 222.292 287.824 221.674 287.046C221.201 286.451 220.314 285.822 219.618 285.838C218.942 285.853 218.035 286.53 217.676 287.157C216.931 288.481 216.586 290.017 215.861 291.349C215.127 292.702 214.143 293.936 212.02 293.551C211.692 292.92 211.107 292.221 210.96 291.445C210.678 289.952 210.621 288.421 210.534 286.892C210.433 285.224 210.784 283.342 208.553 282.714C207.235 282.338 206.447 283.317 205.761 286.201C205.458 287.548 205.293 288.909 203.511 289.53ZM66.0263 129.299C65.2068 129.419 65.0043 129.516 64.9038 129.45C64.4624 129.19 64.0018 128.94 63.6352 128.578C58.0963 123.17 53.3207 117.188 49.4032 110.541C46.7326 106.023 45.6447 101.07 45.3741 95.9374C45.0998 90.7062 47.0741 86.32 51.0126 82.7796C53.1667 80.8393 55.704 79.9625 58.5943 80.1307C62.1036 80.3249 63.9076 82.136 63.9387 85.5864C63.9522 86.7331 63.6828 87.9201 63.3516 89.0303C61.1265 96.4127 61.0473 103.734 63.714 111.031C64.1186 112.143 64.5345 113.295 64.6568 114.467C65.1733 119.353 65.5725 124.253 66.0263 129.299ZM222.866 118.679C209.294 114.077 193.661 96.6065 193.199 86.0914C193.508 85.9611 193.822 85.7119 194.117 85.7206C204.319 85.9893 212.059 90.7219 218.052 98.5564C218.557 99.2099 218.863 100.039 219.167 100.829C221.27 106.426 221.872 112.298 222.866 118.679ZM101.969 225.755C100.335 225.332 98.6282 225.08 97.0746 224.456C95.0528 223.642 94.5011 222.269 95.4006 220.356C97.4272 216.057 99.5134 211.775 101.7 207.549C102.999 205.047 104.962 204.825 107.077 206.822C109.396 209.01 110.577 211.744 111.135 214.848C111.865 218.876 106.578 225.72 101.969 225.755ZM73.5413 82.4162C77.8294 73.542 91.8679 67.8018 102.284 71.1679C101.341 72.4297 100.434 73.6209 99.5474 74.841C97.0181 78.2888 93.642 80.3444 89.4439 81.4024C84.3516 82.6819 79.2299 82.39 73.5413 82.4162ZM74.1909 277.446C75.2603 272.995 76.7372 268.687 78.4032 264.451C79.7107 261.118 83.2093 260.502 85.8606 262.934C91.0511 267.683 90.5918 274.02 84.7408 277.83C83.8886 278.387 82.9855 278.895 82.0497 279.316C79.0212 280.696 76.439 280.111 74.1909 277.446ZM180.281 288.189C175.8 289.821 171.802 289.408 167.983 286.951C165.399 285.287 164.419 282.941 164.82 280.028C165.228 277.046 166.488 274.536 169.451 273.228C172.895 271.694 177.087 273.623 177.937 277.2C178.778 280.788 179.473 284.421 180.281 288.189ZM130.251 373.57C129.678 371.11 130.624 369.403 132.147 367.891C133.774 366.268 135.775 365.223 138.007 364.843C143.153 363.937 148.312 364.188 153.388 365.361C154.595 365.642 155.592 366.317 155.626 367.74C150.116 373.06 138.545 375.81 130.251 373.57ZM35.4472 338.875C28.8404 336.909 21.8372 330.902 19.5838 325.212C18.9666 323.662 18.6868 321.952 18.5267 320.297C18.4434 319.38 18.9177 318.423 19.1727 317.375C21.725 317.16 23.3034 318.445 24.7958 319.794C29.6686 324.179 33.0796 329.609 36.0409 335.342C36.6229 336.477 36.5576 337.617 35.4472 338.875ZM116.156 306.277C118.446 300.871 120.207 298.915 124.071 297.573C125.165 297.196 126.422 296.961 127.555 297.096C132.561 297.699 136.514 301.892 137.325 307.577C130.296 307.97 123.388 307.637 116.156 306.277ZM162.527 215.614C163.22 218.149 163.728 219.92 164.167 221.704C165.148 225.642 166.129 229.571 167.023 233.523C167.328 234.876 166.258 235.896 164.985 235.686C157.748 234.446 154.768 230.048 156.239 222.961C156.704 220.709 157.732 218.811 159.431 217.303C160.124 216.693 161.103 216.37 162.527 215.614ZM126.327 197.721C130.967 198.001 135.079 198.579 139.422 198.761C139.282 200.794 138.155 201.875 136.878 202.595C135.744 203.231 134.324 203.819 133.075 203.737C129.663 203.51 127.774 201.286 126.327 197.721Z" fill="#664E2B"/>
<path fill-rule="evenodd" clip-rule="evenodd" d="M113.272 255.958C113.442 258.395 114.405 261.058 116.517 263.243C120.334 267.194 125.027 268.867 130.522 268.383C134.13 268.069 136.361 265.839 138.278 263.057C141.283 258.682 141.372 248.235 136.147 243.081C132.286 239.271 126.766 238.282 121.938 240.847C116.262 243.85 113.004 249.313 113.272 255.958ZM136.106 254.051C136.007 256.912 135.597 259.588 133.627 261.719C132.75 262.662 131.52 263.618 130.304 263.882C122.977 265.483 116.423 258.896 118.199 251.837C118.849 249.271 120.353 247.266 122.532 245.72C126.861 242.65 132.363 243.946 134.583 248.728C135.341 250.39 135.608 252.279 136.106 254.051Z" fill="#664E2B"/>
<path fill-rule="evenodd" clip-rule="evenodd" d="M126.497 139.377C125.282 139.422 125.106 139.429 124.939 139.435C119.697 139.593 118.995 140.5 120.037 145.534C120.969 149.999 121.785 154.497 122.747 158.971C124.992 169.409 131.843 171.614 139.984 171.06C145.649 170.679 149.703 168.133 152.599 163.465C155.375 158.999 156.387 154.065 156.705 148.94C156.816 147.196 156.228 145.626 155.348 144.136C154.49 142.694 153.342 142.164 151.581 142.023C145.421 141.532 139.282 140.784 133.146 140.115C130.585 139.836 128.033 139.546 126.497 139.377ZM151.627 148.509C151.993 151.996 151.198 155.131 149.916 158.087C147.289 164.169 144.08 167.019 135.692 166.217C131.597 165.828 128.959 163.741 128.008 159.841C126.975 155.558 126.136 151.238 125.278 146.919C125.122 146.153 125.238 145.338 125.219 144.281C126.564 144.319 127.563 144.272 128.549 144.403C133.329 145.004 138.077 145.814 142.87 146.227C145.822 146.472 148.617 146.97 151.627 148.509Z" fill="#664E2B"/>
<path fill-rule="evenodd" clip-rule="evenodd" d="M95.6858 100.363C95.9462 104.438 98.5019 106.933 101.988 107.029C105.72 107.146 108.672 104.78 109.155 101.182C109.285 100.198 109.217 99.1519 109.062 98.1687C108.543 94.7763 107.165 93.0678 104.677 92.657C101.549 92.1517 98.9271 92.8735 97.1088 95.6616C96.0516 97.2936 95.5771 99.0323 95.6858 100.363Z" fill="#664E2B"/>
<path fill-rule="evenodd" clip-rule="evenodd" d="M175.995 118.148C176.166 122.71 179.399 125.744 183.936 125.612C188.463 125.482 191.906 122.326 191.694 118.497C191.456 114.233 187.343 110.234 183.315 110.327C179.66 110.425 175.858 114.474 175.995 118.148Z" fill="#664E2B"/>
</svg>
