<svg width="264" height="333" viewBox="0 0 264 333" fill="none" xmlns="http://www.w3.org/2000/svg">
<path fill-rule="evenodd" clip-rule="evenodd" d="M199.347 135.981C197.828 136.659 196.283 137.385 194.716 138.046C190.716 139.742 186.566 138.598 184.141 135.032C183.342 133.863 182.811 132.5 182.204 131.207C181.836 130.431 181.634 129.571 181.25 128.811C180.504 127.325 178.904 126.952 177.688 127.994C176.932 128.644 176.34 129.49 175.569 130.123C172.336 132.758 167.56 132.491 164.692 129.457C162.011 126.626 160.767 123.122 160.713 119.263C160.688 117.411 161.092 115.56 161.358 113.711C161.458 113.002 161.85 112.321 161.86 111.626C161.861 110.971 161.725 110.089 161.293 109.72C160.869 109.36 159.923 109.282 159.355 109.498C158.293 109.883 157.342 110.567 156.347 111.126C154.017 112.428 151.521 112.79 148.904 112.492C143.783 111.918 141.151 109.064 141.294 103.91C141.335 102.217 141.83 100.524 142.163 98.8421C142.274 98.2895 142.7 97.741 142.656 97.2233C142.608 96.5745 142.353 95.8194 141.924 95.3688C141.636 95.0628 140.825 95.056 140.34 95.2093C139.683 95.4132 139.128 95.9404 138.498 96.2682C136.222 97.4495 134.018 98.8548 131.631 99.737C124.751 102.264 119.259 98.4971 118.89 91.0468C118.809 89.3567 119.216 87.6363 119.453 85.9339C119.553 85.2335 119.985 84.5296 119.922 83.8638C119.865 83.2474 119.467 82.413 118.982 82.165C118.472 81.9159 117.643 82.1623 117.018 82.3838C116.681 82.5018 116.474 83.018 116.21 83.3517C113.403 86.9121 109.502 88.5874 105.326 89.7854C105.055 89.865 104.769 89.9195 104.492 89.9579C98.6912 90.8064 94.7188 87.59 94.429 81.6579C94.2993 78.9258 94.4616 76.1969 95.2703 73.5338C95.6043 72.4494 95.7954 71.2856 95.8393 70.149C95.8959 68.6853 94.3551 67.8314 93.1166 68.6025C92.2769 69.1269 91.5742 69.8859 90.7343 70.4185C88.9297 71.5607 87.1473 72.7611 85.2376 73.6864C83.2533 74.6498 81.1 74.5337 78.952 74.0658C75.7175 73.3757 73.8025 71.5 73.5516 67.2891C73.3108 63.2343 74.8915 59.7002 77.4212 56.5878C78.1024 55.7543 78.9831 55.428 80.0334 55.3294C81.5155 55.182 82.821 54.5691 83.6414 53.2823C83.9953 52.7309 84.2606 51.955 84.179 51.3376C84.0621 50.375 83.1644 49.8817 82.3049 49.873C81.3481 49.8606 80.28 49.9995 79.4361 50.4254C77.9221 51.1858 76.5131 51.5408 75.0007 50.5815C73.2273 49.4483 71.9895 47.8936 71.7311 45.7626C71.2576 41.8543 72.0755 38.3236 74.9845 35.4715C77.8515 32.6587 81.3144 31.0074 85.2266 30.5362C88.324 30.1564 91.4694 30.2125 94.5894 30.0875C95.158 30.0685 95.7374 30.1892 96.2917 30.1205C97.7097 29.9542 98.7395 28.7083 98.1738 27.3925C97.2435 25.2273 97.9785 23.4213 98.883 21.6382C101.273 16.8989 104.815 13.1869 109.363 10.5456C110.691 9.77795 112.251 9.28959 113.77 9.02893C118.475 8.20353 120.981 9.46333 123.385 13.5936C126.085 18.2431 126.598 18.4185 130.731 15.1634C134.128 12.4858 137.895 11.1573 142.177 10.9871C145.321 10.863 148.477 10.6492 151.546 11.4149C153.451 11.8898 155.388 12.5625 157.069 13.5693C159.661 15.119 161.15 17.5351 161.084 20.7182C161.064 21.4381 160.921 22.186 161.074 22.8634C161.227 23.5082 161.563 24.2745 162.068 24.6298C162.835 25.159 163.699 24.8239 164.389 24.1873C164.6 23.9907 164.826 23.8111 165.005 23.5887C168.585 19.3131 173.355 18.9078 178.312 19.7219C181.714 20.2793 184.776 21.8717 187.428 24.2017C190.064 26.5066 191.432 29.3357 191.465 32.883C191.506 37.6917 191.545 37.726 195.991 38.9871C201.455 40.5332 206.232 43.3057 210.391 47.1436C211.535 48.1951 212.599 49.4236 213.366 50.7718C215.084 53.77 214.684 56.1295 212.301 58.5924C211.803 59.1055 211.187 59.5075 210.712 60.0297C209.544 61.303 209.673 62.7902 211.057 63.7118C211.887 64.268 212.813 64.6642 213.686 65.1565C216.323 66.6261 218.787 68.3429 220.851 70.5601C221.825 71.5969 222.788 72.7069 223.479 73.9374C225.111 76.8341 224.991 79.7285 222.9 82.3992C222.192 83.2973 221.382 84.1176 220.626 84.9811C219.021 86.8353 218.838 88.8592 220.071 90.9542C220.938 92.4373 221.93 93.8514 222.847 95.3037C223.765 96.7641 224.74 98.194 225.508 99.7223C226.005 100.724 226.276 101.881 226.468 102.994C226.713 104.42 226.126 105.569 224.781 106.147C223.609 106.659 222.385 107.062 221.161 107.441C220.07 107.775 218.92 107.919 217.858 108.32C215.29 109.277 214.48 111.343 215.722 113.847C216.226 114.866 216.937 115.786 217.615 116.713C218.369 117.758 219.241 118.725 219.979 119.777C222.778 123.759 222.706 126.663 219.54 130.284C215.89 134.458 211.426 137.029 205.699 136.824C204.573 136.781 203.418 137.072 202.303 136.947C201.327 136.794 200.413 136.325 199.347 135.981Z" fill="#86604F"/>
<path fill-rule="evenodd" clip-rule="evenodd" d="M75.8597 77.001C81.0027 78.895 85.798 78.2451 90.7687 75.1534C90.7343 77.5106 90.7238 79.0416 90.6812 80.5632C90.6031 83.2135 91.1061 85.7307 92.3959 88.0408C94.1027 91.1041 96.6006 93.0106 100.125 93.5563C103.632 94.1014 106.933 93.5083 110.151 92.1095C111.561 91.5007 112.964 90.8998 114.671 90.1714C114.918 91.1227 115.088 91.7763 115.249 92.4295C115.531 93.5377 115.713 94.6913 116.11 95.763C118.655 102.528 123.755 105.55 131.491 103.736C133.276 103.322 134.97 102.495 137.011 101.755C137.154 102.661 137.312 103.421 137.387 104.194C138.136 112.314 142.008 116.026 150.155 116.193C152.262 116.234 154.378 115.857 156.649 115.65C157.534 116.692 157.012 118.031 156.997 119.234C156.956 122.811 157.982 126.077 159.74 129.085C161.452 132.01 163.751 134.244 167.17 135.195C170.22 136.042 173.081 135.891 175.88 134.418C176.733 133.968 177.587 133.493 178.556 132.974C179.363 134.356 180.028 135.619 180.809 136.812C183.269 140.551 186.722 142.511 191.194 142.659C193.114 142.725 194.875 142.286 196.526 141.342C197.505 140.782 198.454 140.164 199.351 139.617C200.399 140.206 199.965 140.935 199.74 141.524C197.747 146.483 195.166 151.141 192.157 155.529C188.589 160.739 184.91 165.871 180.555 170.452C173.959 177.379 166.555 183.194 157.791 187.04C150.24 190.351 142.366 191.963 134.054 191.666C126.317 191.392 118.703 190.475 111.167 188.767C102.716 186.843 95.1115 183.143 87.9192 178.229C80.64 173.255 75.1715 166.771 70.5976 159.387C65.3209 150.879 63.0516 141.382 62.4602 131.499C61.7954 120.369 62.8381 109.345 65.4482 98.4887C67.2676 90.8774 70.9143 83.2139 75.8597 77.001ZM98.8075 145.459C98.6771 149.671 99.0929 153.815 100.079 157.882C101.64 164.305 107.892 170.034 114.097 170.905C121.617 171.957 127.698 169.539 131.629 162.894C134.103 158.714 136.142 154.248 138.075 149.778C139.483 146.515 138.595 144.712 135.419 143.148C134.527 142.712 133.583 142.381 132.629 142.082C129.912 141.232 127.177 140.414 124.45 139.612C116.902 137.396 109.055 136.806 101.345 135.418C100.894 135.335 99.8761 136.074 99.8095 136.538C99.3707 139.494 99.1173 142.482 98.8075 145.459ZM95.8939 115.905C95.8484 115.404 95.803 114.69 95.6844 113.981C95.3633 112.003 94.4109 110.41 92.4896 109.746C90.3281 108.999 88.2358 109.402 86.474 110.906C84.2089 112.841 83.2839 117.883 84.7 120.493C85.7522 122.441 87.3952 123.381 89.6332 123.197C93.0184 122.927 95.7584 119.831 95.8939 115.905ZM151.35 138.367C150.955 141.66 153.317 145.396 155.975 145.679C158.625 145.962 162.046 143.514 162.391 141.087C162.867 137.789 160.62 134.443 157.612 133.974C154.435 133.483 151.708 135.392 151.35 138.367Z" fill="#CCA18F"/>
<path fill-rule="evenodd" clip-rule="evenodd" d="M174.344 294.642C171.791 296.664 165.638 299.694 162.939 300.261C160.658 300.738 159.387 300.246 158.33 298.191C157.606 296.795 157.03 295.307 156.529 293.805C155.88 291.905 155.404 289.946 154.805 288.023C154.019 285.494 153.53 285.132 150.875 284.963C150.163 284.919 149.445 284.826 148.737 284.881C142.404 285.43 136.258 284.103 130.073 283.127C126.695 282.587 123.296 282.161 119.927 281.605C117.823 281.261 115.703 280.909 113.657 280.306C111.965 279.807 110.671 280.346 109.81 282.049C109.485 282.692 109.271 283.388 108.971 284.031C106.855 288.593 104.82 293.19 102.561 297.681C100.593 301.601 99.9493 301.871 95.8104 300.655C92 299.541 88.2653 298.152 84.7896 296.985C83.9322 295.454 84.3001 294.33 84.73 293.282C85.4376 291.556 86.2891 289.886 87.1007 288.198C89.0165 284.177 90.9323 280.156 92.8641 276.144C93.6666 274.48 94.5408 272.852 95.4877 271.021C98.3613 271.394 101.015 271.792 103.689 272.083C119.167 273.779 134.671 274.993 150.195 272.76C154.396 272.16 158.489 270.803 163.017 269.709C163.364 270.189 164.042 270.912 164.431 271.754C167.766 279.073 171.051 286.423 174.329 293.765C174.416 294.03 174.33 294.354 174.344 294.642Z" fill="#FFE7A4"/>
<path fill-rule="evenodd" clip-rule="evenodd" d="M93.7829 249.467C93.7816 244.676 94.7837 239.948 95.6248 235.19C97.8102 234.898 99.5852 235.36 101.358 235.879C110.029 238.417 118.91 239.538 127.9 239.91C130.889 240.034 133.866 240.018 136.821 239.354C140.994 238.418 145.224 237.919 149.495 237.601C152.725 237.365 155.91 236.596 159.135 236.057C160.477 238.697 162.476 247.217 162.779 251.758C151.869 255.725 140.615 256.404 129.179 255.077C119.561 253.96 109.952 252.786 100.354 251.572C98.1331 251.306 95.7818 251.272 93.7829 249.467Z" fill="#DDF4E4"/>
<path fill-rule="evenodd" clip-rule="evenodd" d="M96.3954 230.52C96.6756 226.42 97.3661 222.409 98.2376 218.332C104.995 219.175 111.336 219.878 117.654 220.77C123.907 221.65 130.125 221.759 136.362 220.731C137.203 220.592 138.053 220.436 138.905 220.42C144.441 220.331 149.969 220.266 155.698 220.201C157.099 223.621 157.647 227.295 158.604 231.075C157.912 231.547 157.305 232.154 156.564 232.429C154.431 233.247 152.232 233.686 149.922 233.859C146.098 234.137 142.234 234.422 138.495 235.219C133.547 236.272 128.637 236.328 123.645 235.971C114.803 235.335 106.224 233.332 97.6693 231.143C97.2753 231.054 96.9283 230.795 96.3954 230.52Z" fill="#28E7B1"/>
<path fill-rule="evenodd" clip-rule="evenodd" d="M92.2724 266.049C92.1704 261.762 92.394 258.077 93.0947 254.223C95.0697 254.545 96.8576 254.884 98.6657 255.118C106.867 256.188 115.055 257.365 123.28 258.231C129.226 258.863 135.22 259.307 141.204 259.383C147.197 259.459 153.144 258.583 158.957 256.998C160.458 256.59 161.912 256.122 163.351 256.235C163.568 256.513 163.726 256.618 163.737 256.741C164.887 265.18 164.144 264.897 157.335 267.279C154.531 268.26 151.548 268.816 148.595 269.226C138.662 270.594 128.692 270.373 118.706 269.733C111.301 269.266 103.921 268.58 96.6242 267.216C95.2553 266.951 93.9184 266.489 92.2724 266.049Z" fill="#28E7B1"/>
<path fill-rule="evenodd" clip-rule="evenodd" d="M245.315 150.329C246.191 152.026 245.74 153.392 245.178 154.73C244.785 155.657 244.248 156.52 243.88 157.448C243.539 158.303 243.575 159.262 244.391 159.761C244.906 160.067 245.772 160.133 246.347 159.934C247.688 159.47 248.926 158.708 250.252 158.194C251.026 157.888 251.897 157.823 252.608 157.679C253.807 158.569 253.508 159.589 253.1 160.482C252.372 162.108 251.086 163.254 249.545 164.087C248.667 164.561 247.759 164.976 246.888 165.475C246.099 165.928 245.471 166.649 245.744 167.56C245.916 168.164 246.474 168.825 247.031 169.1C248.178 169.66 249.466 169.907 250.639 170.419C251.636 170.859 252.773 171.247 253.056 172.535C252.075 173.988 250.472 173.696 249.157 174.129C248.221 174.428 247.188 174.479 246.267 174.811C245.107 175.233 244.697 176.593 245.369 177.676C245.896 178.523 246.581 179.27 247.116 180.118C247.415 180.588 247.546 181.167 247.746 181.666C246.246 183.54 244.541 183.778 242.362 183.079C238.588 181.869 235.405 179.846 232.811 176.846C232.531 176.524 232.211 176.209 232.023 175.833C228.842 169.552 225.719 163.264 226.76 155.836C227.028 153.955 227.526 152.18 228.482 150.555C228.829 149.97 229.406 149.526 229.913 148.98C232.638 150.273 233.517 152.707 234.364 155.147C234.693 156.085 234.799 157.113 235.194 158.005C235.687 159.105 237.421 159.155 238.022 158.098C238.44 157.36 238.643 156.508 238.974 155.727C240.235 152.696 241.821 151.316 245.315 150.329Z" fill="#CCA18F"/>
<path fill-rule="evenodd" clip-rule="evenodd" d="M20.5306 116.121C23.7483 117.244 27.0782 120.084 29.0653 123.453C29.4992 124.19 29.7754 125.02 30.1924 125.773C30.6403 126.568 31.3086 127.118 32.2801 126.959C33.3009 126.786 33.6073 125.995 33.6349 125.071C33.6519 124.212 33.5153 123.338 33.637 122.499C34.0594 119.338 37.0031 116.848 40.2074 116.849C41.3025 116.85 42.2334 117.533 42.2153 118.63C42.1897 120.341 42.2177 122.135 41.7099 123.729C40.621 127.134 39.2193 130.446 37.8902 133.769C37.2438 135.382 36.4313 136.882 34.6516 137.591C33.8112 137.927 33.5923 138.762 33.3709 139.662C32.0285 145.007 27.0722 148.984 21.638 149.167C21.256 149.185 20.8601 148.932 20.2116 148.71C20.4932 147.722 20.7155 146.797 21.0422 145.901C21.2872 145.231 21.8047 144.645 21.9525 143.971C22.0905 143.337 22.081 142.534 21.8025 141.975C21.3581 141.089 20.4081 141.11 19.5403 141.314C18.7133 141.511 17.9193 141.907 17.0874 142.022C15.3746 142.259 13.6383 142.265 12.1446 141.241C11.6074 140.868 10.8819 140.119 10.957 139.647C11.0745 138.915 11.6477 137.938 12.2825 137.676C13.4199 137.212 14.7571 137.247 15.9845 136.975C17.1053 136.732 17.539 134.955 16.6849 134.177C16.2773 133.809 15.734 133.592 15.2756 133.279C14.572 132.802 13.8264 132.363 13.2161 131.783C12.4647 131.074 11.9633 130.195 12.444 129.091C12.9254 127.972 13.6752 127.043 14.956 127.067C16.2206 127.092 17.4941 127.305 18.7237 127.606C19.5355 127.801 20.2876 128.281 21.0429 128.679C21.9091 129.146 22.707 129.071 23.3822 128.392C24.0827 127.691 23.9679 126.884 23.5465 126.032C22.5466 123.987 21.5224 121.941 20.655 119.827C20.1062 118.496 20.2215 118.451 20.5306 116.121Z" fill="#CCA18F"/>
<path fill-rule="evenodd" clip-rule="evenodd" d="M153.388 207.377C154.646 210.071 154.5 212.808 155.063 215.647C154.118 215.963 153.355 216.4 152.574 216.452C150.728 216.569 148.868 216.423 147.023 216.508C142.764 216.711 138.504 216.948 134.25 217.25C130.418 217.528 126.605 217.954 122.746 217.469C116.958 216.745 111.147 216.169 105.348 215.519C103.239 215.281 101.142 214.963 99.0899 213.917C99.0592 210.935 99.8623 208.206 100.311 205.202C101.115 205.184 101.819 205.006 102.429 205.177C112.734 208.065 123.282 207.801 133.823 207.726C136.095 207.715 138.372 207.771 140.626 208.022C143.332 208.323 146.004 208.459 148.694 207.916C150.207 207.606 151.758 207.551 153.388 207.377Z" fill="#DDF4E4"/>
<path fill-rule="evenodd" clip-rule="evenodd" d="M152.625 203.162C149.241 204.252 146.055 204.604 142.761 204.411C138.795 204.175 134.814 203.907 130.844 203.991C123.432 204.138 116.043 204.09 108.73 202.735C106.249 202.27 103.689 201.966 101.266 200.431C101.787 197.233 101.647 193.944 103.234 190.664C118.529 194.777 133.891 196.935 149.748 194.067C151.104 196.986 151.856 199.98 152.625 203.162Z" fill="#28E7B1"/>
<path fill-rule="evenodd" clip-rule="evenodd" d="M58.5529 112.358C56.1961 111.628 55.032 109.634 53.9991 107.604C52.2202 104.096 51.3775 100.296 51.1715 96.3902C51.002 93.2225 51.2134 90.0614 52.0953 86.9754C52.6959 84.8693 53.5902 82.9302 55.1121 81.3348C56.5408 79.8423 58.2353 79.4492 60.1983 80.0819C63.9002 81.2733 66.0042 84.9744 64.6401 88.5741C61.9745 95.6204 60.4674 102.916 59.5227 110.357C59.4657 110.78 59.3521 111.202 59.1827 111.596C59.0835 111.855 58.8332 112.033 58.5529 112.358Z" fill="#CCA18F"/>
<path fill-rule="evenodd" clip-rule="evenodd" d="M37.7767 313.823C37.9346 312.887 38.0008 312.013 38.2355 311.187C39.5788 306.448 41.7033 302.067 44.3931 297.962C45.4449 296.357 46.9593 295.793 48.7782 295.748C50.1911 295.713 51.2601 296.18 51.8806 297.547C52.2994 298.464 52.7678 299.358 53.3029 300.206C54.0521 301.39 54.1353 302.597 53.7918 303.927C53.4377 305.322 53.1964 306.737 52.8744 308.142C51.8291 312.728 49.2051 316.181 45.4275 318.836C43.7435 320.007 41.989 320.275 40.1935 319.297C38.3817 318.318 37.701 316.621 37.7385 314.599C37.7496 314.313 37.7688 314.027 37.7767 313.823Z" fill="#28E7B1"/>
<path fill-rule="evenodd" clip-rule="evenodd" d="M193.279 160.995C195.515 157.29 197.432 154.293 199.158 151.182C200.823 148.2 202.281 145.104 203.862 141.987C206.418 141.767 208.803 142.178 211.058 143.019C213.962 144.098 214.921 146.133 214.187 149.184C213.993 150.003 213.629 150.816 213.203 151.553C212.131 153.453 210.706 155.06 208.915 156.293C204.456 159.355 199.485 160.785 193.279 160.995Z" fill="#CCA18F"/>
<path fill-rule="evenodd" clip-rule="evenodd" d="M210.957 306.302C212.633 307.865 214.182 309.334 215.757 310.787C218.114 312.974 219.16 315.717 219.013 318.897C218.931 320.606 218.758 322.343 218.345 323.998C218.115 324.906 217.401 325.747 216.749 326.467C216.071 327.219 214.773 327.201 214.039 326.477C213.437 325.888 212.839 325.21 212.502 324.46C210.373 319.726 209.024 314.752 208.405 309.585C208.208 307.956 208.853 306.802 210.957 306.302Z" fill="#28E7B1"/>
<path fill-rule="evenodd" clip-rule="evenodd" d="M83.4188 119.017C76.9881 115.599 68.7346 116.943 64.5731 123.235C61.5743 127.779 62.3965 134.419 65.3939 138.933C66.9383 142.211 69.9025 144.856 73.34 145.751C80.5119 147.625 86.8568 143.399 89.7196 136.917C92.5459 130.54 89.3967 122.188 83.4188 119.017Z" fill="#EBC6B6"/>
<path fill-rule="evenodd" clip-rule="evenodd" d="M180.073 151.049C177.925 146.167 173.461 143.709 168.528 143.527C165.795 143.069 162.92 143.359 160.397 144.416C152.522 147.715 151.231 157.812 156.005 164.22C160.324 170.021 168.799 172.175 175.002 168.05C180.564 164.359 182.81 157.256 180.073 151.049Z" fill="#EBC6B6"/>
<path fill-rule="evenodd" clip-rule="evenodd" d="M68.1679 81.6925C69.7281 79.1077 71.0544 76.9069 72.2849 74.8743C72.2113 74.4702 72.2338 74.3073 72.1566 74.206C68.5216 68.767 69.4061 63.3061 72.0835 57.8409C72.5857 56.812 73.1913 55.8363 73.8275 54.6981C73.0425 54.0207 72.2966 53.3777 71.5505 52.7428C69.2583 50.7625 68.0184 48.2086 67.8176 45.2199C67.513 40.7204 68.6842 36.6546 71.8393 33.3125C76.3396 28.5401 82.0356 26.6229 88.3897 26.3608C89.9415 26.298 91.5089 26.465 92.8454 26.5167C93.2744 26.1238 93.6212 25.9652 93.6541 25.7454C94.7622 19.1139 98.6254 14.2432 103.502 10.0176C104.476 9.17085 105.519 8.40864 106.601 7.71341C109.304 5.98351 112.277 5.05021 115.494 4.93709C119.491 4.78862 122.717 6.31373 125.166 9.48762C125.947 10.4923 126.653 11.5433 127.399 12.5876C127.928 12.3297 128.347 12.2066 128.681 11.9575C136.908 5.84689 146.012 6.01053 155.262 8.46466C159.253 9.5198 162.306 12.1929 164.001 16.173C164.225 16.6894 164.489 17.1909 164.685 17.5998C165.747 18.2468 166.418 17.4539 167.144 17.1543C175.249 13.7579 185.571 16.1962 191.749 23.2322C193.481 25.2073 194.6 27.5272 194.936 30.1853C195.108 31.6006 195.28 33.024 195.47 34.6201C196.549 35.0303 197.596 35.4393 198.653 35.8077C203.976 37.6678 208.751 40.4812 212.901 44.3269C213.951 45.2929 214.949 46.3469 215.78 47.5092C218.705 51.5941 218.776 55.6261 216.118 59.9537C215.893 60.3217 215.652 60.6728 215.273 61.2477C216.005 61.8411 216.691 62.5473 217.508 63.0375C220.108 64.6121 222.427 66.5362 224.366 68.8387C225.638 70.3456 226.812 72.0698 227.529 73.8992C228.974 77.6321 228.42 81.2631 225.991 84.5023C225.05 85.7516 224.023 86.9239 222.891 88.3133C223.777 89.7397 224.585 91.0731 225.41 92.399C226.472 94.1025 227.625 95.7521 228.587 97.5173C229.2 98.6384 229.672 99.8768 229.964 101.125C231.018 105.563 229.606 108.301 225.385 110.038C224.206 110.525 222.924 110.745 221.692 111.132C220.896 111.379 220.12 111.71 219.141 112.073C219.69 112.979 220.083 113.731 220.567 114.413C221.322 115.458 222.177 116.433 222.931 117.485C226.787 122.868 226.588 127.823 222.307 132.8C220.514 134.884 218.451 136.639 216.039 137.971C215.193 138.438 214.384 138.996 213.536 139.528C213.854 139.909 214.007 140.169 214.22 140.325C215.987 141.613 217.58 143.01 217.918 145.373C218.313 148.164 217.975 150.829 216.549 153.296C214.557 156.765 211.747 159.384 208.214 161.147C203.822 163.336 199.208 164.771 194.231 164.668C193.096 164.649 191.962 164.581 190.634 164.529C189.828 165.448 188.948 166.381 188.147 167.373C180.603 176.811 171.619 184.456 160.823 189.861C160.583 189.983 160.387 190.221 159.934 190.613C160.503 191.012 160.962 191.513 161.515 191.698C172.212 195.338 183.044 195.708 193.981 192.937C204.148 190.365 213.767 186.438 222.718 180.896C224.555 179.763 226.298 178.544 227.741 176.463C226.832 174.176 225.853 171.804 224.939 169.418C222.934 164.206 222.085 158.883 223.419 153.341C223.969 151.077 224.782 148.93 226.279 147.129C228.346 144.654 230.993 144.388 233.383 146.569C234.723 147.792 235.816 149.3 237.13 150.792C238.085 150.002 238.896 149.181 239.836 148.579C241.033 147.823 242.274 147.002 243.603 146.62C246.711 145.749 248.946 147.318 249.446 150.547C249.603 151.528 249.564 152.534 249.632 153.716C250.766 153.759 251.851 153.793 252.928 153.843C255.382 153.954 256.577 154.95 257.134 157.331C257.696 159.776 256.909 161.883 255.496 163.802C254.743 164.821 253.872 165.738 252.903 166.88C253.869 167.711 254.768 168.368 255.541 169.152C258.195 171.842 257.764 174.815 254.47 176.505C253.352 177.076 252.137 177.463 250.942 177.949C251.185 179.638 251.58 181.16 251.602 182.692C251.633 185.052 250.977 185.641 248.852 186.459C243.886 188.38 239.611 186.495 235.488 184.035C233.672 182.949 232.074 181.479 230.222 180.056C228.635 181.255 227.132 182.565 225.469 183.598C213.293 191.153 200.234 196.331 185.976 198.147C176.722 199.329 167.79 197.886 159.041 194.837C157.592 194.331 156.144 193.808 154.279 193.146C154.303 194.212 154.161 194.935 154.366 195.516C156.693 202.051 157.67 208.878 158.99 215.661C160.723 224.556 162.955 233.347 164.876 242.201C165.908 246.974 166.866 251.777 167.62 256.614C168.108 259.728 168.333 262.939 166.974 265.974C166.362 267.342 167 268.464 167.554 269.649C169.75 274.336 171.913 279.03 174.076 283.733C174.614 284.908 175.12 286.099 175.609 287.297C176.467 289.435 177.346 291.475 179.292 292.975C180.765 294.113 180.429 295.869 178.816 296.896C176.894 298.116 174.935 299.276 172.783 300.594C172.971 301.608 173.038 302.593 173.352 303.506C174.415 306.635 175.379 309.825 176.731 312.826C177.845 315.284 179.228 317.713 180.907 319.809C184.243 323.959 188.868 324.555 193.012 321.251C198.202 317.103 202.514 312.152 204.88 305.733C206.167 302.22 210.485 300.921 213.265 303.297C215.432 305.15 217.487 307.178 219.426 309.284C220.376 310.312 221.137 311.611 221.662 312.917C223.417 317.251 223.189 321.681 221.619 326.002C220.456 329.208 218.041 330.834 215.181 330.74C213.196 330.671 211.53 329.911 210.434 328.263C209.567 326.961 208.794 325.547 208.259 324.076C207.363 321.651 206.697 319.152 205.908 316.681C205.662 315.91 205.342 315.168 204.93 314.088C203.781 315.476 202.926 316.614 201.961 317.65C200.099 319.634 198.292 321.693 196.259 323.49C189.531 329.453 181.497 327.423 177.264 321.298C175.643 318.95 174.224 316.414 173.076 313.798C171.748 310.782 170.833 307.586 169.721 304.472C169.486 303.832 169.161 303.222 168.794 302.413C167.283 302.895 165.959 303.36 164.622 303.742C159.807 305.12 156.609 303.678 154.507 299.084C153.737 297.392 153.215 295.579 152.61 293.819C152.091 292.333 151.614 290.832 151.076 289.206C150.061 289.044 149.077 288.687 148.132 288.781C142.505 289.325 137.039 288.017 131.553 287.24C126.906 286.585 122.318 285.441 117.607 285.161C116.199 285.074 114.818 284.701 113.198 284.425C112.804 285.172 112.387 285.884 112.034 286.616C109.778 291.262 107.664 295.996 105.233 300.553C102.74 305.223 101.235 305.763 96.1985 304.675C95.2331 304.466 94.2577 304.306 93.2586 304.128C92.1273 305.271 91.9732 306.74 91.5481 308.083C90.5787 311.124 89.1804 313.928 87.3436 316.535C83.2309 322.404 76.4025 322.975 71.3558 320.479C68.3707 319.004 65.857 316.876 63.6236 314.423C61.6 312.207 59.6606 309.913 57.7256 307.717C56.623 307.699 56.6079 308.509 56.4686 309.175C55.2353 314.843 51.8944 319.005 47.2364 322.191C44.3948 324.137 41.3742 324.421 38.368 322.651C35.4092 320.915 33.9305 318.245 34.024 314.777C34.0578 313.484 34.1252 312.16 34.4487 310.928C35.9092 305.465 38.3263 300.44 41.4214 295.711C43.2662 292.9 45.7488 291.637 49.0318 291.911C50.5764 292.036 52.111 292.21 53.4123 292.334C55.1873 295.523 56.8049 298.378 58.3564 301.263C60.9072 305.997 64.3283 310.044 68.2198 313.675C69.5665 314.931 71.1131 316.055 72.7261 316.928C77.1688 319.311 81.4119 318.255 84.4332 314.179C86.8807 310.883 88.1465 307.099 89.0461 302.925C88.1469 302.472 87.3057 301.989 86.4276 301.62C85.1104 301.069 83.7301 300.68 82.4306 300.089C80.8362 299.364 79.963 298.029 80.2827 296.264C80.6127 294.442 81.0973 292.61 81.7563 290.883C82.4776 289.011 83.4865 287.257 84.3599 285.439C86.708 280.518 89.0484 275.589 91.4845 270.491C91.0402 270.023 90.7336 269.561 90.315 269.266C89.011 268.372 88.4852 267.075 88.4131 265.581C88.3497 264.285 88.3673 262.992 88.4823 261.694C89.3935 250.928 90.9342 240.243 92.6447 229.573C93.9697 221.32 95.2377 213.073 96.5462 204.828C97.0177 201.865 97.5294 198.912 98.0589 195.706C96.9908 195.427 96.2136 195.176 95.4167 195.014C92.181 194.357 89.1077 193.272 86.0933 191.927C74.1702 186.626 63.8246 179.134 55.0158 169.449C48.1602 161.912 41.4464 154.274 35.8311 145.712C35.7623 145.602 35.61 145.556 35.4754 145.469C34.3639 145.262 34.034 146.24 33.6115 146.887C31.135 150.722 27.3171 152.114 23.1353 152.845C22.3102 152.993 21.4263 152.984 20.5867 152.878C17.7446 152.53 16.6152 151.315 16.3701 148.423C16.3187 147.864 16.4056 147.294 16.4379 146.46C15.2893 146.162 14.2028 145.94 13.1699 145.589C11.9687 145.182 10.6928 144.822 9.64041 144.134C6.81627 142.272 6.2881 139.148 8.20081 136.257C8.66604 135.555 9.26581 134.939 9.88716 134.185C8.24582 131.526 7.85476 128.841 9.77639 126.139C11.1913 124.163 12.1347 123.683 17.361 122.583C17.1733 121.773 16.8962 120.968 16.8303 120.155C16.6935 118.446 16.4446 116.701 16.6397 115.013C16.9356 112.396 18.6977 111.301 21.249 112.038C22.4523 112.388 23.6455 112.999 24.6801 113.727C26.0865 114.698 27.3383 115.893 28.6587 116.993C29.2952 117.525 29.9314 118.065 30.6701 118.684C31.5679 117.703 32.3227 116.856 33.1011 116.026C34.9787 114.043 37.3732 113.169 39.9935 112.959C43.159 112.705 45.4289 114.635 45.9533 117.858C46.3522 120.338 45.982 122.781 45.2912 125.121C43.6418 130.642 41.5928 136.009 38.0088 140.792C38.5598 143.328 40.1351 145.387 41.6203 147.467C46.8756 154.852 52.8097 161.674 59.0639 168.189C62.3233 171.591 65.8674 174.766 69.5502 177.709C75.7274 182.649 82.6138 186.453 89.9296 189.43C91.8941 190.235 94.0106 190.677 96.0863 191.125C97.2286 191.374 97.367 191.15 98.6076 189.069C97.8078 188.563 97.0442 187.96 96.1917 187.559C90.4634 184.856 85.1798 181.352 80.4649 177.197C72.29 170.002 66.0899 161.246 62.5192 150.789C59.4579 141.842 58.2327 132.615 58.5901 123.162C58.6676 121.158 58.745 119.155 58.8231 117.135C50.8618 113.437 48.712 106.303 47.7081 98.697C47.1324 94.2852 47.2673 89.7454 48.7721 85.4468C49.4286 83.5722 50.2643 81.68 51.4058 80.0617C54.7022 75.3738 60.4798 74.7046 64.8884 78.3883C65.917 79.2715 66.8483 80.364 68.1679 81.6925ZM199.347 135.982C200.412 136.335 201.327 136.804 202.289 136.907C203.403 137.032 204.55 136.749 205.684 136.784C211.412 136.998 215.875 134.427 219.525 130.244C222.691 126.624 222.763 123.727 219.964 119.737C219.226 118.677 218.363 117.718 217.6 116.673C216.93 115.747 216.219 114.826 215.707 113.808C214.465 111.303 215.275 109.238 217.844 108.28C218.905 107.887 220.055 107.743 221.147 107.401C222.37 107.022 223.586 106.619 224.766 106.108C226.103 105.529 226.699 104.389 226.454 102.954C226.262 101.833 225.998 100.685 225.493 99.6825C224.733 98.1463 223.75 96.7161 222.833 95.2639C221.924 93.8038 220.932 92.3978 220.056 90.9144C218.823 88.8194 218.999 86.7952 220.612 84.9413C221.367 84.0778 222.177 83.2657 222.886 82.3595C224.977 79.6805 225.096 76.7943 223.464 73.8977C222.774 72.6671 221.811 71.5571 220.837 70.5203C218.773 68.3031 216.308 66.5945 213.671 65.1167C212.798 64.6325 211.872 64.2282 211.042 63.672C209.658 62.7504 209.529 61.2713 210.698 59.9898C211.181 59.4598 211.788 59.0657 212.287 58.5526C214.669 56.0897 215.069 53.7302 213.351 50.732C212.584 49.392 211.512 48.1549 210.377 47.1037C206.217 43.2659 201.433 40.4849 195.976 38.9472C191.53 37.6944 191.491 37.6601 191.45 32.8432C191.425 29.2962 190.05 26.4668 187.413 24.1619C184.761 21.8319 181.7 20.2394 178.298 19.6821C173.34 18.868 168.571 19.2732 164.99 23.5489C164.811 23.7712 164.577 23.9506 164.375 24.1475C163.693 24.7845 162.82 25.1192 162.054 24.59C161.548 24.2429 161.213 23.4683 161.059 22.8236C160.899 22.1459 161.049 21.3983 161.069 20.6784C161.127 17.495 159.639 15.0789 157.054 13.5295C155.373 12.5227 153.436 11.85 151.532 11.3751C148.462 10.6094 145.306 10.8232 142.162 10.9473C137.88 11.1175 134.114 12.446 130.716 15.1236C126.583 18.3787 126.071 18.1951 123.371 13.5538C120.967 9.42353 118.46 8.16373 113.755 8.98913C112.236 9.25796 110.676 9.73815 109.348 10.5058C104.801 13.1471 101.258 16.8591 98.8684 21.5984C97.9636 23.3897 97.2285 25.1957 98.1592 27.3527C98.7248 28.6685 97.6951 29.9144 96.2771 30.0807C95.7147 30.149 95.1433 30.0287 94.5747 30.0477C91.4467 30.1724 88.3012 30.1163 85.2119 30.4964C81.3076 30.976 77.8369 32.6189 74.9699 35.4317C72.0609 38.2838 71.2429 41.8145 71.7165 45.7228C71.9667 47.8535 73.2043 49.4164 74.986 50.5417C76.4984 51.501 77.9153 51.1545 79.4214 50.3856C80.2654 49.9596 81.3334 49.8208 82.2902 49.8332C83.1498 49.8419 84.0471 50.3434 84.1643 51.2979C84.2375 51.9231 83.9803 52.6993 83.6267 53.2425C82.7985 54.5208 81.4928 55.1418 80.0187 55.2896C78.9684 55.3882 78.0878 55.7145 77.4066 56.548C74.8769 59.6604 73.2962 63.1945 73.537 67.2493C73.7879 71.4602 75.7032 73.3277 78.9374 74.026C81.0934 74.4943 83.239 74.6018 85.2229 73.6466C87.1326 72.7214 88.9232 71.5212 90.7196 70.3787C91.5596 69.8461 92.2623 69.087 93.1019 68.5626C94.3404 67.7916 95.8809 68.6537 95.8246 70.1092C95.7807 71.2458 95.5897 72.4096 95.2557 73.494C94.447 76.1571 94.2843 78.8942 94.4143 81.6181C94.7038 87.5584 98.6684 90.7663 104.477 89.9181C104.763 89.88 105.041 89.8252 105.311 89.7456C109.487 88.5476 113.389 86.8723 116.195 83.3119C116.46 82.9782 116.666 82.462 117.004 82.344C117.629 82.1225 118.458 81.868 118.967 82.1252C119.453 82.365 119.85 83.2075 119.907 83.8239C119.971 84.4897 119.538 85.1937 119.438 85.8941C119.202 87.5965 118.786 89.3166 118.875 91.007C119.244 98.4573 124.737 102.224 131.616 99.6972C134.003 98.8232 136.207 97.4179 138.484 96.2284C139.113 95.9006 139.669 95.3734 140.326 95.1695C140.81 95.0162 141.613 95.0227 141.909 95.329C142.339 95.7714 142.585 96.5344 142.641 97.1835C142.685 97.7094 142.259 98.2497 142.148 98.8023C141.816 100.485 141.328 102.177 141.279 103.871C141.145 109.017 143.768 111.878 148.889 112.453C151.506 112.75 154.003 112.388 156.332 111.086C157.336 110.527 158.287 109.851 159.34 109.458C159.908 109.251 160.854 109.32 161.279 109.68C161.711 110.049 161.855 110.931 161.846 111.586C161.843 112.282 161.444 112.963 161.343 113.671C161.077 115.52 160.673 117.371 160.699 119.223C160.752 123.082 161.996 126.586 164.677 129.417C167.545 132.452 172.321 132.718 175.554 130.083C176.325 129.45 176.918 128.605 177.673 127.954C178.898 126.912 180.49 127.285 181.235 128.772C181.619 129.54 181.822 130.391 182.189 131.167C182.796 132.468 183.336 133.824 184.126 134.993C186.559 138.567 190.71 139.702 194.702 138.006C196.292 137.379 197.836 136.661 199.347 135.982ZM75.8612 77.0026C70.9159 83.2155 67.2692 90.879 65.4417 98.49C62.8316 109.346 61.7888 120.37 62.4537 131.5C63.0451 141.383 65.3144 150.881 70.5911 159.389C75.165 166.772 80.6338 173.248 87.9127 178.231C95.1047 183.152 102.709 186.853 111.161 188.768C118.696 190.485 126.311 191.393 134.047 191.668C142.359 191.965 150.226 190.352 157.785 187.041C166.557 183.196 173.953 177.381 180.548 170.454C184.911 165.872 188.59 160.732 192.15 155.531C195.159 151.143 197.74 146.485 199.733 141.525C199.966 140.945 200.392 140.208 199.344 139.618C198.455 140.165 197.507 140.784 196.52 141.344C194.869 142.279 193.108 142.719 191.187 142.661C186.715 142.512 183.262 140.553 180.803 136.813C180.021 135.62 179.356 134.358 178.55 132.975C177.58 133.503 176.735 133.97 175.874 134.42C173.074 135.9 170.213 136.043 167.163 135.197C163.744 134.246 161.446 132.011 159.733 129.087C157.968 126.07 156.95 122.804 156.991 119.235C157.005 118.04 157.527 116.701 156.643 115.651C154.364 115.85 152.256 116.235 150.148 116.195C142.002 116.027 138.129 112.323 137.381 104.195C137.313 103.423 137.148 102.663 137.004 101.756C134.964 102.505 133.269 103.324 131.484 103.738C123.748 105.551 118.649 102.521 116.103 95.7644C115.707 94.6926 115.524 93.5472 115.243 92.4308C115.073 91.7773 114.904 91.1238 114.665 90.1727C112.965 90.9014 111.555 91.502 110.144 92.1108C106.934 93.5099 103.634 94.103 100.118 93.5576C96.5941 93.0119 94.0965 91.0973 92.3893 88.0422C91.0995 85.732 90.5969 83.2067 90.6747 80.5645C90.7176 79.0347 90.7278 77.5119 90.7621 75.1547C85.7995 78.2468 81.0043 78.8967 75.8612 77.0026ZM174.343 294.643C174.338 294.356 174.416 294.031 174.311 293.798C171.034 286.457 167.748 279.107 164.413 271.787C164.024 270.937 163.346 270.223 163 269.743C158.479 270.837 154.379 272.194 150.178 272.793C134.654 275.018 119.149 273.813 103.671 272.117C100.997 271.825 98.3357 271.427 95.4703 271.054C94.5314 272.885 93.6572 274.514 92.8466 276.178C90.9068 280.189 88.999 284.21 87.0832 288.231C86.2796 289.92 85.4282 291.59 84.7125 293.315C84.2826 294.363 83.9146 295.487 84.7721 297.019C88.2478 298.185 91.9829 299.566 95.7929 300.688C99.9318 301.904 100.567 301.634 102.544 297.714C104.802 293.224 106.83 288.626 108.953 284.065C109.254 283.413 109.467 282.725 109.792 282.082C110.661 280.38 111.948 279.84 113.64 280.339C115.686 280.934 117.805 281.295 119.909 281.638C123.279 282.194 126.678 282.621 130.056 283.161C136.24 284.145 142.395 285.464 148.719 284.914C149.428 284.851 150.146 284.945 150.858 284.997C153.52 285.165 154.009 285.528 154.788 288.056C155.387 289.979 155.871 291.939 156.511 293.839C157.013 295.332 157.588 296.829 158.313 298.224C159.369 300.28 160.64 300.771 162.922 300.294C165.63 299.695 171.791 296.665 174.343 294.643ZM93.7819 249.468C95.7888 251.273 98.132 251.306 100.352 251.589C109.959 252.804 119.567 253.978 129.178 255.095C140.614 256.421 151.859 255.742 162.778 251.775C162.475 247.234 160.468 238.705 159.134 236.074C155.901 236.612 152.715 237.382 149.493 237.618C145.222 237.928 140.992 238.436 136.819 239.372C133.865 240.035 130.887 240.043 127.898 239.927C118.908 239.547 110.028 238.434 101.356 235.896C99.5835 235.377 97.8085 234.915 95.6231 235.207C94.7827 239.949 93.7805 244.677 93.7819 249.468ZM96.3965 230.52C96.9375 230.795 97.2845 231.054 97.6701 231.151C106.217 233.34 114.804 235.335 123.646 235.98C128.637 236.345 133.547 236.289 138.496 235.227C142.234 234.43 146.099 234.145 149.922 233.867C152.233 233.694 154.432 233.255 156.565 232.437C157.298 232.154 157.914 231.547 158.605 231.083C157.648 227.303 157.108 223.63 155.699 220.21C149.969 220.283 144.442 220.339 138.906 220.428C138.054 220.445 137.204 220.592 136.363 220.739C130.125 221.768 123.9 221.65 117.654 220.778C111.337 219.887 104.996 219.183 98.2384 218.34C97.3672 222.409 96.6764 226.428 96.3965 230.52ZM92.2728 266.05C93.9107 266.49 95.2557 266.951 96.633 267.209C103.93 268.581 111.31 269.259 118.715 269.726C128.693 270.365 138.67 270.587 148.604 269.219C151.557 268.809 154.539 268.253 157.344 267.272C164.153 264.89 164.896 265.173 163.746 256.734C163.735 256.611 163.584 256.507 163.36 256.228C161.92 256.115 160.458 256.582 158.966 256.991C153.153 258.577 147.205 259.46 141.213 259.376C135.229 259.3 129.243 258.856 123.289 258.225C115.064 257.358 106.875 256.181 98.6745 255.111C96.8664 254.877 95.0785 254.538 93.1035 254.216C92.4025 258.079 92.1789 261.763 92.2728 266.05ZM245.317 150.33C241.823 151.317 240.228 152.697 238.984 155.712C238.654 156.493 238.45 157.353 238.032 158.083C237.432 159.132 235.706 159.09 235.205 157.99C234.81 157.09 234.695 156.07 234.374 155.132C233.527 152.7 232.656 150.259 229.924 148.965C229.408 149.511 228.831 149.955 228.492 150.54C227.537 152.157 227.03 153.931 226.771 155.821C225.729 163.257 228.852 169.537 232.033 175.818C232.221 176.194 232.542 176.509 232.821 176.831C235.415 179.831 238.598 181.845 242.372 183.064C244.552 183.763 246.256 183.534 247.756 181.651C247.557 181.152 247.425 180.573 247.127 180.103C246.592 179.255 245.907 178.508 245.38 177.661C244.708 176.578 245.117 175.21 246.277 174.796C247.207 174.464 248.231 174.413 249.167 174.114C250.474 173.689 252.077 173.981 253.066 172.52C252.783 171.232 251.646 170.844 250.649 170.404C249.477 169.892 248.188 169.645 247.042 169.085C246.484 168.81 245.926 168.149 245.755 167.545C245.482 166.625 246.11 165.904 246.898 165.46C247.769 164.961 248.677 164.546 249.556 164.072C251.105 163.239 252.382 162.093 253.11 160.467C253.51 159.574 253.817 158.554 252.618 157.664C251.907 157.808 251.036 157.881 250.262 158.179C248.936 158.692 247.698 159.455 246.358 159.919C245.782 160.118 244.917 160.052 244.401 159.746C243.585 159.247 243.541 158.287 243.89 157.433C244.259 156.505 244.795 155.642 245.188 154.715C245.75 153.394 246.2 152.027 245.317 150.33ZM20.5313 116.121C20.2144 118.443 20.0988 118.496 20.6483 119.811C21.5241 121.917 22.5402 123.963 23.5398 126.016C23.9611 126.867 24.0759 127.675 23.3755 128.376C22.7006 129.046 21.9026 129.122 21.0361 128.663C20.2808 128.265 19.5287 127.785 18.7169 127.59C17.4874 127.289 16.2058 127.075 14.9493 127.051C13.6685 127.026 12.9187 127.956 12.4373 129.075C11.9566 130.179 12.458 131.058 13.2094 131.767C13.8197 132.347 14.5654 132.785 15.2689 133.263C15.7354 133.576 16.2786 133.794 16.6781 134.161C17.5323 134.939 17.0986 136.716 15.9778 136.959C14.7504 137.231 13.4135 137.188 12.2758 137.66C11.6494 137.914 11.0678 138.899 10.9502 139.631C10.8755 140.095 11.6007 140.852 12.1379 141.225C13.6316 142.249 15.3676 142.251 17.0806 142.006C17.9125 141.89 18.7066 141.495 19.5336 141.298C20.3933 141.094 21.3513 141.073 21.7957 141.959C22.0743 142.518 22.0838 143.321 21.9457 143.955C21.798 144.629 21.2801 145.223 21.0355 145.885C20.7091 146.773 20.4945 147.706 20.2049 148.694C20.8537 148.908 21.2496 149.161 21.6312 149.151C27.0655 148.968 32.0221 144.983 33.3642 139.646C33.5934 138.754 33.8044 137.911 34.6449 137.575C36.4246 136.865 37.2289 135.365 37.8835 133.753C39.2126 130.43 40.6062 127.118 41.7032 123.713C42.211 122.119 42.183 120.324 42.2086 118.614C42.2266 117.517 41.2958 116.834 40.2007 116.833C36.9963 116.832 34.0607 119.322 33.6302 122.483C33.5167 123.322 33.6533 124.196 33.6282 125.055C33.6083 125.988 33.2941 126.77 32.2734 126.943C31.3019 127.102 30.6336 126.552 30.1857 125.757C29.7602 125.012 29.4921 124.182 29.0585 123.437C27.0789 120.084 23.7569 117.253 20.5313 116.121ZM153.388 207.378C151.767 207.552 150.216 207.607 148.711 207.917C146.013 208.46 143.349 208.324 140.643 208.023C138.39 207.772 136.104 207.717 133.84 207.727C123.299 207.803 112.751 208.075 102.447 205.179C101.837 205.008 101.132 205.185 100.328 205.203C99.8795 208.208 99.0763 210.937 99.1071 213.919C101.159 214.973 103.248 215.283 105.365 215.52C111.164 216.17 116.975 216.747 122.763 217.47C126.623 217.947 130.436 217.521 134.267 217.252C138.522 216.949 142.781 216.713 147.04 216.509C148.885 216.416 150.746 216.562 152.591 216.453C153.372 216.41 154.127 215.972 155.08 215.649C154.501 212.809 154.647 210.071 153.388 207.378ZM152.626 203.163C151.857 199.981 151.105 196.987 149.75 194.06C133.893 196.928 118.53 194.769 103.235 190.657C101.656 193.937 101.797 197.226 101.267 200.424C103.699 201.96 106.25 202.271 108.731 202.727C116.044 204.091 123.433 204.131 130.845 203.984C134.815 203.908 138.797 204.168 142.763 204.403C146.065 204.605 149.25 204.253 152.626 203.163ZM58.5535 112.359C58.8338 112.034 59.0844 111.847 59.1911 111.605C59.3605 111.21 59.4741 110.789 59.531 110.365C60.4758 102.925 61.9829 95.6292 64.6484 88.5829C66.0129 84.975 63.9008 81.2737 60.2067 80.0908C58.2436 79.458 56.5491 79.8511 55.1204 81.3437C53.5985 82.9391 52.7039 84.8863 52.1036 86.9841C51.222 90.062 51.0102 93.2313 51.1798 96.399C51.3857 100.305 52.2286 104.105 54.0074 107.613C55.0326 109.635 56.1967 111.629 58.5535 112.359ZM37.7763 313.824C37.7684 314.029 37.7493 314.315 37.7463 314.601C37.7006 316.622 38.3817 318.311 40.2012 319.299C41.9968 320.277 43.7513 320.009 45.4353 318.838C49.2128 316.183 51.8368 312.73 52.8822 308.144C53.2042 306.739 53.4374 305.323 53.7996 303.929C54.1431 302.599 54.0599 301.392 53.3107 300.208C52.7756 299.36 52.3072 298.466 51.8884 297.549C51.2595 296.19 50.1986 295.723 48.786 295.75C46.9674 295.787 45.4526 296.359 44.4008 297.964C41.711 302.069 39.5866 306.45 38.2433 311.189C38.0004 312.015 37.9342 312.889 37.7763 313.824ZM193.277 160.996C199.483 160.785 204.446 159.364 208.922 156.286C210.713 155.053 212.13 153.445 213.21 151.546C213.628 150.809 213.992 149.996 214.194 149.176C214.929 146.117 213.969 144.082 211.065 143.012C208.81 142.171 206.433 141.768 203.869 141.98C202.288 145.096 200.83 148.193 199.165 151.175C197.439 154.286 195.514 157.29 193.277 160.996ZM210.958 306.303C208.854 306.803 208.209 307.958 208.397 309.587C209.009 314.753 210.366 319.727 212.495 324.461C212.831 325.22 213.43 325.89 214.031 326.478C214.766 327.203 216.071 327.22 216.741 326.468C217.394 325.74 218.116 324.9 218.338 323.999C218.75 322.345 218.923 320.607 219.005 318.899C219.161 315.719 218.115 312.976 215.749 310.788C214.183 309.335 212.625 307.875 210.958 306.303Z" fill="#6B4434"/>
<path fill-rule="evenodd" clip-rule="evenodd" d="M98.8089 145.458C99.1268 142.482 99.3803 139.494 99.8194 136.53C99.886 136.066 100.904 135.327 101.355 135.41C109.057 136.805 116.903 137.395 124.459 139.604C127.195 140.406 129.921 141.224 132.639 142.074C133.584 142.372 134.537 142.704 135.429 143.14C138.597 144.695 139.493 146.507 138.085 149.769C136.143 154.24 134.113 158.706 131.639 162.885C127.707 169.53 121.627 171.957 114.107 170.896C107.902 170.026 101.65 164.305 100.089 157.874C99.094 153.823 98.6704 149.671 98.8089 145.458ZM134.682 147.14C133.951 146.735 133.376 146.295 132.727 146.074C123.802 142.977 114.659 140.871 105.26 139.951C103.862 139.815 103.135 140.376 102.987 141.894C102.525 146.487 102.511 151.064 103.388 155.635C104.401 160.923 107.571 164.33 112.242 166.476C116.052 168.22 123.095 167.968 126.998 162.902C127.955 161.662 128.929 160.389 129.648 158.992C131.288 155.804 132.802 152.546 134.307 149.288C134.59 148.684 134.554 147.93 134.682 147.14Z" fill="#6B4434"/>
<path fill-rule="evenodd" clip-rule="evenodd" d="M134.681 147.141C134.553 147.93 134.589 148.685 134.306 149.288C132.801 152.547 131.288 155.797 129.648 158.993C128.929 160.382 127.955 161.655 126.998 162.903C123.095 167.969 116.043 168.229 112.241 166.477C107.57 164.331 104.4 160.924 103.388 155.635C102.51 151.065 102.525 146.487 102.986 141.895C103.142 140.377 103.862 139.816 105.26 139.952C114.659 140.872 123.801 142.978 132.727 146.075C133.375 146.304 133.951 146.736 134.681 147.141Z" fill="#FFF2E1"/>
<path fill-rule="evenodd" clip-rule="evenodd" d="M95.8944 115.906C95.7588 119.831 93.0191 122.919 89.6417 123.198C87.4037 123.382 85.7608 122.442 84.7085 120.493C83.2924 117.883 84.2174 112.842 86.4826 110.906C88.2446 109.394 90.337 108.992 92.4981 109.747C94.4194 110.411 95.38 112.004 95.6929 113.981C95.7954 114.69 95.8405 115.412 95.8944 115.906Z" fill="#6B4434"/>
<path fill-rule="evenodd" clip-rule="evenodd" d="M151.35 138.368C151.709 135.393 154.435 133.483 157.612 133.975C160.62 134.443 162.868 137.79 162.391 141.088C162.046 143.515 158.618 145.954 155.975 145.68C153.317 145.405 150.947 141.661 151.35 138.368Z" fill="#6B4434"/>
</svg>
